<svg id="svg" version="1.1" xmlns="http://www.w3.org/2000/svg" xmlns:xlink="http://www.w3.org/1999/xlink" width="400" height="379" viewBox="0, 0, 400,379"><g id="svgg"><path id="path0" d="M166.500 29.269 C 157.714 32.177,158.370 45.304,167.300 45.281 C 173.668 45.264,178.077 38.757,175.418 33.300 C 175.042 32.530,174.747 31.841,174.761 31.769 C 174.816 31.490,172.922 29.942,172.035 29.543 C 170.869 29.018,167.728 28.863,166.500 29.269 M171.708 30.651 C 174.915 32.284,176.174 36.243,174.564 39.633 C 171.815 45.422,164.488 46.148,162.010 40.877 C 159.153 34.798,165.894 27.690,171.708 30.651 M139.800 38.074 C 133.354 40.925,130.870 42.456,130.707 43.677 C 130.609 44.406,131.659 59.680,132.206 65.500 C 132.576 69.434,133.014 69.828,126.034 59.959 C 122.588 55.086,119.765 51.010,119.761 50.900 C 119.725 49.978,117.881 48.400,116.840 48.400 C 116.123 48.400,107.119 52.822,106.350 53.553 C 105.052 54.785,104.437 53.838,118.424 72.139 L 131.047 88.656 135.826 103.764 C 138.453 112.074,140.750 119.034,140.929 119.232 C 141.623 119.999,143.580 119.812,144.618 118.881 C 144.793 118.724,146.654 117.748,148.754 116.712 C 152.797 114.718,153.297 114.320,153.257 113.126 C 153.246 112.782,151.068 105.616,148.418 97.202 L 143.600 81.903 143.619 68.802 C 143.630 61.596,143.704 51.920,143.784 47.300 C 143.945 38.010,143.969 38.217,142.691 37.683 C 141.746 37.289,141.501 37.322,139.800 38.074 M142.560 38.840 C 142.744 39.024,142.800 44.160,142.800 60.742 L 142.800 82.404 147.619 97.712 C 151.058 108.633,152.402 113.165,152.311 113.528 C 152.169 114.095,143.274 118.600,142.298 118.600 C 141.631 118.600,141.955 119.509,136.801 103.200 C 134.245 95.115,132.064 88.329,131.954 88.119 C 131.843 87.910,126.243 80.530,119.508 71.719 C 105.367 53.219,106.606 54.945,107.085 54.417 C 107.709 53.727,116.401 49.572,117.076 49.641 C 117.606 49.694,118.440 50.797,125.559 60.856 C 129.902 66.992,133.486 71.981,133.524 71.943 C 133.562 71.905,133.190 65.998,132.697 58.816 C 131.671 43.880,131.661 43.588,132.151 43.145 C 133.721 41.724,142.014 38.294,142.560 38.840 M256.454 41.504 C 255.987 41.832,254.719 44.374,253.004 48.422 L 251.935 50.944 250.219 50.472 C 246.732 49.513,246.602 49.601,244.090 54.621 C 241.293 60.208,241.523 61.160,245.800 61.698 C 247.285 61.885,247.303 61.940,246.467 63.716 C 246.057 64.587,245.648 65.351,245.558 65.413 C 245.216 65.651,238.195 81.513,236.003 87.000 C 231.503 98.268,232.027 103.356,238.140 107.745 C 241.332 110.037,248.726 112.400,252.708 112.400 C 254.767 112.400,255.056 112.087,256.879 107.881 C 257.638 106.132,258.323 104.655,258.401 104.600 C 259.254 104.003,259.451 101.714,258.722 100.867 C 258.252 100.320,258.197 100.309,255.272 100.170 C 247.926 99.821,246.467 98.531,248.063 93.799 C 249.342 90.005,259.669 65.921,260.050 65.842 C 260.205 65.810,262.395 66.327,264.916 66.992 C 271.547 68.739,271.082 68.885,273.464 64.300 C 274.321 62.650,275.209 61.001,275.438 60.635 C 276.223 59.381,275.828 57.697,274.640 57.227 C 273.795 56.893,269.368 55.749,268.699 55.692 C 267.806 55.616,264.800 54.761,264.800 54.584 C 264.800 54.275,267.985 47.786,268.283 47.489 C 269.274 46.497,269.019 44.530,267.818 43.910 C 266.951 43.461,258.405 41.200,257.577 41.200 C 257.199 41.200,256.693 41.337,256.454 41.504 M262.286 43.415 C 268.843 45.141,268.544 44.599,265.923 50.019 C 264.890 52.153,263.913 54.219,263.750 54.608 L 263.456 55.316 268.278 56.592 C 276.024 58.643,275.609 58.062,272.985 63.173 C 270.486 68.043,271.330 67.751,264.777 66.012 C 261.797 65.222,259.337 64.603,259.310 64.637 C 258.934 65.121,247.878 91.544,247.180 93.630 C 245.426 98.862,247.829 101.186,255.005 101.197 C 258.843 101.202,258.845 101.209,256.441 106.615 C 254.094 111.891,254.419 111.506,252.341 111.471 C 246.922 111.379,238.953 108.096,236.390 104.900 C 232.105 99.559,233.150 95.227,245.039 69.031 C 246.904 64.923,248.384 61.517,248.329 61.462 C 248.274 61.407,247.300 61.110,246.164 60.801 C 242.520 59.811,242.578 60.067,244.920 55.357 C 245.899 53.388,246.907 51.583,247.160 51.344 L 247.621 50.911 249.760 51.485 C 250.937 51.800,252.061 52.068,252.257 52.079 C 252.534 52.095,252.963 51.295,254.177 48.500 C 256.492 43.169,256.944 42.334,257.586 42.216 C 257.633 42.207,259.748 42.747,262.286 43.415 M216.469 44.897 C 213.753 45.521,209.747 47.481,208.800 48.649 C 208.275 49.297,208.118 48.975,208.409 47.841 C 208.633 46.965,208.619 46.774,208.280 46.081 C 207.652 44.795,207.534 44.773,201.585 44.844 C 195.856 44.913,195.630 44.954,194.915 46.053 C 194.495 46.698,187.275 101.867,187.521 102.556 C 187.825 103.409,188.651 103.869,189.843 103.849 C 199.203 103.691,200.357 103.534,200.915 102.341 C 201.098 101.951,202.342 93.127,204.089 79.835 C 205.670 67.810,206.998 57.935,207.042 57.891 C 207.832 57.101,212.968 56.879,214.498 57.569 C 217.727 59.027,217.727 58.412,214.500 82.736 C 213.125 93.101,212.000 101.926,212.000 102.346 C 212.000 104.129,213.014 104.518,216.851 104.211 C 218.297 104.095,220.519 104.000,221.790 103.999 C 224.455 103.998,225.203 103.715,225.573 102.565 C 225.691 102.199,226.977 92.990,228.430 82.100 C 231.777 57.019,231.817 55.874,229.521 50.904 C 229.146 50.092,228.881 49.386,228.932 49.335 C 229.106 49.160,226.537 46.580,225.701 46.090 C 223.440 44.765,219.346 44.236,216.469 44.897 M223.228 46.210 C 227.665 47.704,229.952 51.738,230.141 58.400 C 230.259 62.571,225.159 101.929,224.403 102.686 C 223.871 103.219,214.016 103.449,213.327 102.945 C 212.967 102.681,213.040 102.024,215.462 83.686 C 218.481 60.830,218.257 62.802,218.018 61.118 C 217.535 57.728,215.514 56.200,211.512 56.200 C 209.337 56.200,206.432 56.894,206.199 57.470 C 206.103 57.706,204.754 67.665,203.201 79.600 C 200.353 101.484,200.232 102.257,199.632 102.513 C 198.739 102.893,189.110 102.859,188.766 102.473 C 188.320 101.974,195.361 47.475,195.985 46.600 L 196.342 46.100 201.385 45.936 C 208.121 45.718,207.651 45.365,207.067 50.200 L 206.934 51.300 207.817 50.585 C 213.030 46.364,218.813 44.722,223.228 46.210 M172.200 47.827 C 163.577 49.818,163.767 49.753,163.285 50.906 C 162.990 51.612,168.139 106.732,168.596 107.760 C 169.016 108.704,171.484 109.002,172.480 108.228 C 172.601 108.134,174.422 107.632,176.527 107.111 C 180.656 106.089,181.511 105.719,181.731 104.856 C 181.813 104.535,180.788 93.174,179.308 78.000 C 177.896 63.535,176.727 51.070,176.708 50.300 C 176.642 47.524,175.715 47.015,172.200 47.827 M175.263 48.759 C 175.529 49.053,176.062 53.998,178.190 75.909 C 179.621 90.644,180.842 103.068,180.904 103.519 C 181.100 104.961,180.898 105.071,175.599 106.406 C 170.276 107.747,169.874 107.797,169.602 107.150 C 169.425 106.730,164.197 53.245,164.199 51.874 C 164.200 50.934,164.504 50.793,169.180 49.567 C 173.920 48.324,174.767 48.211,175.263 48.759 M299.853 50.896 C 291.668 53.200,290.932 63.149,298.752 65.784 C 305.695 68.123,312.608 60.719,309.249 54.542 C 307.620 51.547,303.382 49.902,299.853 50.896 M304.623 52.108 C 310.686 54.247,310.508 62.545,304.354 64.716 C 298.001 66.958,292.438 61.763,295.076 56.053 C 296.645 52.657,301.036 50.842,304.623 52.108 M288.812 66.350 C 288.256 66.865,262.062 106.320,261.317 107.764 C 261.129 108.130,260.261 109.510,259.387 110.831 C 257.175 114.180,257.431 115.797,260.253 116.309 C 260.501 116.354,262.342 117.158,264.343 118.095 C 268.520 120.052,269.042 120.150,269.973 119.150 C 270.306 118.793,277.168 108.510,285.223 96.300 C 293.277 84.090,299.987 74.028,300.133 73.940 C 300.572 73.677,301.000 72.668,301.000 71.899 C 301.000 70.823,300.331 70.338,295.528 67.930 C 290.670 65.495,289.925 65.320,288.812 66.350 M294.966 68.808 C 299.327 70.829,300.102 71.340,299.947 72.091 C 299.831 72.653,269.898 117.987,269.267 118.557 C 268.637 119.127,268.899 119.210,263.600 116.753 C 258.790 114.523,258.800 114.528,258.800 113.894 C 258.800 113.469,288.483 68.305,289.455 67.250 C 290.075 66.578,290.276 66.635,294.966 68.808 M327.464 67.198 C 324.934 67.862,322.079 69.395,319.300 71.584 C 318.860 71.931,317.141 73.567,315.480 75.220 L 312.461 78.226 310.909 77.113 C 308.903 75.674,308.055 75.600,306.751 76.750 C 299.555 83.095,299.057 84.167,302.498 85.908 C 304.388 86.864,304.456 86.679,300.958 90.071 C 298.188 92.756,289.102 102.066,276.250 115.386 C 272.201 119.583,272.000 119.827,272.000 120.568 C 272.000 121.550,273.203 123.173,273.945 123.193 C 274.080 123.197,275.665 124.278,277.468 125.595 C 281.563 128.586,281.930 128.731,283.112 127.818 C 283.339 127.643,289.987 120.750,297.885 112.500 C 305.784 104.250,312.809 96.927,313.498 96.227 L 314.749 94.955 318.371 97.585 C 323.984 101.661,323.413 101.607,326.985 98.389 C 328.331 97.177,329.771 95.971,330.185 95.709 C 331.715 94.744,331.970 93.008,330.748 91.872 C 329.908 91.092,327.522 89.367,326.500 88.800 C 326.060 88.556,325.078 87.897,324.318 87.336 L 322.936 86.315 324.786 84.561 C 330.911 78.754,333.919 79.128,339.506 86.393 C 341.397 88.852,341.756 88.791,345.298 85.409 C 346.628 84.139,348.242 82.632,348.885 82.060 L 350.053 81.021 349.955 80.004 C 349.662 76.949,342.219 70.197,336.717 67.994 C 333.617 66.753,330.264 66.464,327.464 67.198 M334.227 68.306 C 338.461 69.401,344.475 73.673,347.665 77.850 C 349.543 80.310,349.647 80.078,344.559 84.828 C 341.439 87.740,341.638 87.729,339.619 85.113 C 336.146 80.613,333.245 78.918,330.390 79.719 C 328.366 80.287,324.491 83.166,322.324 85.713 L 321.633 86.525 325.920 89.613 C 331.472 93.611,331.370 93.214,327.696 96.530 C 323.155 100.629,324.064 100.594,318.938 96.870 C 316.720 95.258,314.809 93.931,314.691 93.920 C 314.573 93.909,307.971 100.695,300.020 109.000 C 282.210 127.603,282.338 127.474,281.753 127.358 C 281.172 127.243,273.258 121.481,272.987 120.976 C 272.690 120.420,271.809 121.365,289.347 103.435 L 305.593 86.825 303.698 85.504 C 300.830 83.504,300.794 83.682,304.800 80.009 C 308.712 76.422,308.244 76.504,311.450 78.842 L 312.599 79.680 315.450 76.771 C 322.986 69.079,328.173 66.741,334.227 68.306 M94.832 81.826 C 85.976 82.901,78.541 93.146,79.584 102.836 C 80.855 114.644,93.407 133.110,103.500 138.020 C 111.509 141.916,120.330 138.370,127.926 128.200 C 130.609 124.608,130.612 124.836,127.800 120.536 C 126.590 118.686,125.600 117.050,125.600 116.901 C 125.600 116.471,124.334 115.241,123.738 115.092 C 122.252 114.719,121.194 115.474,119.664 118.000 C 117.829 121.030,115.574 123.641,113.828 124.757 C 113.538 124.943,113.185 125.205,113.044 125.340 C 111.850 126.479,108.056 125.420,105.596 123.262 C 104.297 122.123,102.400 120.080,102.400 119.821 C 102.400 119.720,106.210 116.210,110.868 112.020 C 118.970 104.730,119.800 103.890,119.800 102.981 C 119.800 101.364,110.794 89.309,107.553 86.587 C 105.613 84.959,103.540 83.682,101.742 83.007 C 100.839 82.668,99.936 82.298,99.735 82.184 C 99.534 82.071,98.904 81.934,98.335 81.881 C 97.766 81.828,97.030 81.759,96.700 81.728 C 96.370 81.697,95.530 81.741,94.832 81.826 M100.674 83.557 C 105.775 85.316,111.030 90.610,117.591 100.603 C 119.501 103.511,120.343 102.283,110.200 111.385 C 105.745 115.382,101.848 118.895,101.540 119.191 L 100.979 119.728 102.464 121.427 C 109.153 129.077,114.639 128.313,120.394 118.928 C 122.847 114.928,122.970 114.955,126.534 120.304 L 129.270 124.409 128.961 125.054 C 127.316 128.489,120.487 135.143,116.593 137.104 C 107.308 141.780,97.595 135.832,87.121 119.057 C 78.700 105.570,78.403 95.583,86.190 87.788 C 90.850 83.123,95.486 81.769,100.674 83.557 M94.283 94.484 C 91.502 95.695,90.118 99.008,90.977 102.402 C 91.653 105.079,95.199 112.200,95.855 112.200 C 96.113 112.200,105.077 103.805,105.285 103.369 C 105.563 102.785,104.871 101.537,103.104 99.431 C 99.567 95.215,96.524 93.509,94.283 94.484 M97.500 95.651 C 98.504 96.156,100.405 97.973,102.341 100.278 C 104.590 102.957,104.582 102.700,102.481 104.647 C 101.502 105.555,99.705 107.311,98.490 108.549 C 95.831 111.258,96.127 111.234,94.751 108.850 C 90.979 102.318,90.639 98.849,93.516 96.221 C 94.972 94.890,95.761 94.777,97.500 95.651 M47.878 99.370 C 47.458 99.633,46.334 101.219,44.432 104.230 C 41.228 109.303,41.135 109.590,42.164 111.211 C 43.144 112.755,52.830 126.086,53.199 126.400 C 53.614 126.752,56.623 130.844,56.533 130.934 C 56.442 131.025,36.316 122.577,36.200 122.399 C 35.747 121.701,33.305 121.354,32.511 121.875 C 31.989 122.216,26.636 130.769,26.337 131.737 C 26.113 132.463,26.437 133.499,26.977 133.787 C 27.155 133.881,35.805 137.156,46.200 141.064 C 56.595 144.972,65.273 148.237,65.485 148.320 C 65.782 148.435,82.081 162.209,88.835 168.052 C 90.826 169.774,92.159 169.494,93.283 167.118 C 93.560 166.533,94.734 164.539,95.893 162.688 C 98.197 159.005,98.400 158.362,97.583 157.323 C 97.353 157.031,91.750 152.165,85.133 146.510 L 73.100 136.228 62.171 118.664 C 56.160 109.004,51.111 100.785,50.952 100.400 C 50.407 99.085,49.053 98.632,47.878 99.370 M61.069 118.600 L 72.467 136.900 84.651 147.300 C 96.866 157.727,97.315 158.140,97.143 158.795 C 96.987 159.392,91.996 167.271,91.470 167.751 C 90.808 168.354,91.868 169.170,78.360 157.657 L 66.421 147.480 47.860 140.510 C 37.652 136.676,28.895 133.384,28.400 133.195 C 26.874 132.609,26.823 132.775,30.251 127.200 C 32.952 122.808,33.106 122.600,33.658 122.600 C 33.973 122.600,42.139 125.963,58.758 132.936 C 59.385 133.199,59.344 133.114,57.843 131.056 C 55.029 127.199,45.156 113.547,43.861 111.724 C 43.168 110.747,42.600 109.798,42.600 109.614 C 42.600 109.287,47.522 101.251,48.158 100.540 C 49.177 99.401,48.674 98.699,61.069 118.600 M340.766 103.735 C 340.583 103.783,331.873 112.895,321.412 123.983 L 302.391 144.144 290.846 148.222 L 279.300 152.300 278.934 153.049 C 278.409 154.123,278.730 154.908,280.368 156.559 C 281.101 157.297,282.675 159.008,283.868 160.362 C 286.095 162.891,286.663 163.302,287.700 163.136 C 288.030 163.083,295.680 160.414,304.700 157.205 C 313.720 153.996,330.730 147.943,342.500 143.754 C 354.270 139.565,364.305 136.062,364.800 135.970 C 366.458 135.663,367.302 134.031,366.526 132.632 C 366.383 132.374,364.879 130.557,363.183 128.594 C 359.973 124.878,359.235 124.275,358.124 124.461 C 357.421 124.578,334.016 134.369,332.972 134.982 C 332.603 135.199,330.770 136.020,328.900 136.807 C 324.758 138.549,324.600 138.612,324.600 138.505 C 324.600 138.310,347.575 116.092,348.400 115.489 C 350.975 113.607,350.796 112.920,346.423 107.911 C 342.506 103.424,342.357 103.314,340.766 103.735 M342.991 105.750 C 345.186 108.024,349.000 112.609,349.000 112.975 C 349.000 113.500,348.999 113.501,333.950 128.096 C 326.498 135.323,320.400 141.264,320.400 141.299 C 320.400 141.333,322.853 140.330,325.850 139.070 C 359.642 124.861,358.475 125.328,359.124 125.753 C 359.532 126.020,365.442 132.891,365.651 133.342 C 366.156 134.427,367.665 133.843,326.578 148.454 C 305.305 156.018,287.617 162.206,287.270 162.204 C 286.491 162.199,279.800 154.722,279.800 153.856 C 279.800 153.255,278.900 153.613,292.039 148.976 L 303.020 145.100 322.016 124.965 C 332.464 113.890,341.122 104.785,341.256 104.730 C 341.748 104.531,341.901 104.621,342.991 105.750 M193.400 170.906 C 161.406 174.955,136.566 196.408,128.679 226.800 C 126.801 234.033,125.926 249.576,127.057 255.600 C 127.876 259.968,129.488 266.562,130.099 268.050 C 130.301 268.543,129.828 268.508,127.468 267.858 C 123.448 266.752,122.018 266.962,112.600 270.038 C 106.983 271.873,105.317 272.273,101.560 272.690 C 97.777 273.109,97.710 273.149,98.983 274.239 C 102.660 277.387,108.025 278.900,119.800 280.113 L 123.100 280.453 127.453 278.928 C 140.635 274.309,149.347 273.042,159.541 274.260 C 171.409 275.679,180.915 273.567,197.400 265.851 C 212.266 258.892,213.973 258.902,232.107 266.058 C 247.638 272.187,256.760 274.940,268.299 276.982 C 275.202 278.204,271.573 278.348,263.117 277.188 C 254.150 275.958,242.427 272.903,237.000 270.383 C 234.756 269.341,234.653 269.314,232.800 269.290 C 231.755 269.276,230.787 269.250,230.649 269.233 C 230.511 269.215,229.622 268.479,228.672 267.597 C 226.310 265.403,225.892 265.345,222.968 266.801 L 221.296 267.633 218.620 266.417 C 215.463 264.982,215.852 265.022,213.768 265.915 C 211.157 267.034,210.250 267.200,205.700 267.398 C 200.759 267.612,200.396 267.694,195.634 269.675 C 189.019 272.427,182.361 274.499,176.500 275.630 C 174.691 275.979,169.159 275.979,160.100 275.631 C 145.061 275.052,142.779 275.467,123.930 282.221 C 114.299 285.671,109.465 287.032,102.700 288.197 C 98.994 288.835,97.366 289.213,96.563 289.621 C 90.183 292.860,106.834 302.479,120.818 303.634 C 130.495 304.432,142.520 299.956,145.352 294.500 C 147.115 291.103,144.342 290.154,134.500 290.786 L 131.900 290.953 129.454 289.276 C 126.627 287.339,126.955 287.401,124.219 288.283 C 120.035 289.633,115.499 290.339,109.402 290.591 C 103.550 290.832,103.485 290.618,109.100 289.599 C 112.581 288.967,115.480 288.314,125.100 285.998 C 144.182 281.403,149.417 280.600,160.294 280.600 C 170.938 280.600,175.561 281.740,182.200 286.000 C 192.436 292.569,201.483 292.874,213.700 287.061 C 223.044 282.616,223.876 282.350,228.500 282.325 C 233.975 282.297,235.101 282.704,251.300 290.577 C 265.797 297.622,269.222 298.499,282.200 298.483 C 290.239 298.473,291.158 298.358,295.689 296.795 C 301.286 294.865,305.365 292.165,306.484 289.648 L 306.862 288.796 306.081 288.096 C 304.601 286.768,304.498 286.744,299.825 286.583 C 293.791 286.375,293.709 286.137,298.756 283.473 C 305.030 280.160,305.938 279.086,304.291 276.929 C 303.901 276.418,303.473 276.000,303.341 276.000 C 303.208 276.000,300.445 276.307,297.200 276.682 C 287.240 277.833,280.260 278.129,278.635 277.469 C 277.676 277.080,280.291 276.018,284.497 275.088 C 288.306 274.247,292.982 272.384,293.997 271.303 L 294.435 270.837 293.368 270.625 C 292.780 270.509,291.175 270.236,289.800 270.019 C 287.538 269.662,286.271 269.335,280.827 267.702 C 278.807 267.096,278.027 267.081,275.357 267.599 C 271.728 268.304,271.541 268.226,272.389 266.356 C 275.866 258.688,276.573 239.405,273.795 228.000 C 266.331 197.355,240.119 174.224,209.300 171.087 C 204.912 170.640,196.275 170.542,193.400 170.906 M202.605 188.811 C 213.452 190.158,222.642 196.422,227.747 205.947 C 228.323 207.021,228.795 207.951,228.797 208.013 C 228.802 208.211,227.314 208.842,227.253 208.668 C 225.904 204.825,220.716 198.661,216.386 195.754 C 195.360 181.640,168.000 196.534,168.000 222.092 L 168.000 224.200 167.215 224.200 L 166.430 224.200 166.365 222.550 C 165.580 202.676,183.078 186.384,202.605 188.811 M192.848 193.437 C 195.002 194.263,194.250 198.400,191.946 198.400 C 191.765 198.400,191.240 199.738,190.417 202.296 L 189.162 206.192 191.531 208.983 C 192.834 210.518,194.021 211.780,194.169 211.787 C 194.317 211.794,196.837 211.070,199.769 210.178 L 205.100 208.555 208.167 204.272 L 211.234 199.988 210.987 199.023 C 210.217 196.020,214.377 194.295,215.835 197.012 C 216.846 198.898,215.540 201.000,213.357 201.000 C 212.719 201.000,207.300 207.861,207.300 208.669 C 207.300 209.002,215.069 210.970,215.300 210.696 C 217.214 208.424,220.873 210.725,219.723 213.477 C 218.825 215.626,215.529 215.509,214.801 213.302 C 214.673 212.916,214.537 212.600,214.498 212.600 C 214.459 212.600,212.451 212.064,210.037 211.410 L 205.646 210.220 200.107 211.893 C 197.061 212.813,194.522 213.611,194.466 213.667 C 194.410 213.723,193.757 215.652,193.015 217.953 L 191.666 222.136 192.133 222.679 C 193.672 224.469,191.577 227.551,189.326 226.809 C 186.513 225.880,186.827 222.427,189.805 221.538 C 190.002 221.479,190.553 220.059,191.366 217.511 C 192.057 215.347,192.667 213.458,192.722 213.315 C 192.867 212.938,188.060 207.400,187.589 207.400 C 187.062 207.400,177.941 208.792,177.846 208.887 C 177.803 208.930,177.611 209.258,177.419 209.617 C 176.399 211.518,173.720 211.359,172.729 209.339 C 171.462 206.752,175.014 204.386,176.997 206.497 C 177.257 206.773,177.659 207.000,177.890 207.000 C 178.388 207.000,187.422 205.647,187.503 205.560 C 187.533 205.527,188.110 203.821,188.785 201.768 L 190.012 198.036 189.488 197.268 C 188.485 195.800,189.213 193.697,190.892 193.215 C 191.521 193.034,191.913 193.079,192.848 193.437 M190.769 195.287 C 190.486 195.909,190.655 196.343,191.294 196.633 C 192.190 197.042,193.061 195.741,192.360 195.040 C 191.928 194.608,191.014 194.750,190.769 195.287 M212.840 197.640 C 212.512 197.968,212.538 198.700,212.888 198.990 C 213.328 199.355,214.232 199.167,214.413 198.673 C 214.737 197.790,213.502 196.978,212.840 197.640 M234.200 203.668 C 234.200 204.124,232.826 212.716,232.180 216.300 C 229.143 233.147,225.212 241.409,217.642 246.858 C 210.441 252.041,201.651 253.453,193.628 250.717 C 191.134 249.867,185.800 247.398,185.800 247.095 C 185.800 246.966,187.173 246.295,188.850 245.605 C 192.455 244.121,195.762 242.455,197.701 241.148 C 199.331 240.049,200.429 239.162,200.000 239.291 C 199.835 239.340,198.305 239.796,196.600 240.304 C 194.895 240.813,190.650 242.122,187.167 243.214 C 179.131 245.734,179.314 245.733,182.367 243.237 C 186.717 239.680,187.853 237.674,188.135 233.043 L 188.261 230.986 190.481 229.427 C 196.219 225.397,198.607 224.315,207.351 221.785 C 219.258 218.341,222.928 215.921,231.700 205.735 C 233.582 203.550,234.200 203.039,234.200 203.668 M174.440 207.640 C 173.830 208.250,174.313 209.200,175.233 209.200 C 175.750 209.200,176.200 208.747,176.200 208.227 C 176.200 207.569,174.933 207.147,174.440 207.640 M228.900 211.343 C 222.067 218.463,218.714 220.369,207.300 223.620 C 200.150 225.657,197.391 226.865,192.725 230.005 L 190.041 231.811 189.907 233.456 C 189.673 236.332,188.757 239.069,187.463 240.767 C 187.020 241.347,187.000 241.428,187.323 241.330 C 187.530 241.267,189.140 240.768,190.900 240.221 C 199.662 237.498,206.900 235.420,207.061 235.581 C 207.344 235.864,201.312 240.877,198.401 242.779 C 196.712 243.882,193.151 245.711,190.950 246.606 C 189.472 247.207,189.459 247.180,191.750 248.149 C 199.203 251.300,205.997 251.108,213.098 247.548 C 222.676 242.747,227.325 234.149,230.590 215.200 C 231.324 210.944,231.748 208.396,231.721 208.413 C 231.709 208.420,230.440 209.739,228.900 211.343 M216.750 211.616 C 216.348 211.850,216.280 212.800,216.640 213.160 C 217.250 213.770,218.200 213.287,218.200 212.367 C 218.200 211.578,217.467 211.199,216.750 211.616 M177.018 214.874 C 184.210 220.647,186.908 224.616,187.629 230.486 C 188.316 236.077,186.553 239.744,181.345 243.552 C 179.237 245.094,179.298 245.129,179.340 242.400 L 179.375 240.100 178.768 242.600 C 177.810 246.547,177.795 246.600,177.598 246.600 C 177.291 246.600,175.269 243.618,174.402 241.886 C 172.715 238.518,172.663 236.440,174.110 230.201 C 175.699 223.352,175.727 221.255,174.308 215.718 C 173.255 211.609,173.035 211.677,177.018 214.874 M176.400 216.726 C 176.400 216.822,176.546 217.575,176.725 218.400 C 176.920 219.302,177.055 220.897,177.064 222.400 C 177.078 225.024,176.975 225.675,175.670 231.200 C 174.511 236.104,174.568 238.357,175.919 241.047 C 176.835 242.872,176.817 242.882,177.529 240.121 C 178.334 237.000,180.195 232.200,180.600 232.200 C 180.906 232.200,181.035 233.408,181.170 237.539 L 181.300 241.500 182.729 240.138 C 188.057 235.057,186.875 226.277,179.973 219.684 C 178.278 218.064,176.400 216.509,176.400 216.726 M189.410 223.590 C 188.918 224.082,188.909 224.182,189.311 224.755 C 189.854 225.530,191.004 225.227,190.997 224.310 C 190.990 223.367,190.057 222.943,189.410 223.590 M168.800 266.293 C 170.285 266.803,172.940 267.626,174.700 268.123 C 176.460 268.620,177.986 269.110,178.090 269.213 C 178.807 269.919,172.285 268.693,167.291 267.184 C 166.536 266.955,166.428 266.976,165.641 267.497 C 164.806 268.049,164.792 268.051,163.943 267.727 C 162.871 267.318,161.540 267.322,160.500 267.737 C 159.631 268.085,159.174 268.100,157.200 267.846 L 155.900 267.679 156.800 267.269 C 161.761 265.004,164.415 264.789,168.800 266.293 M257.318 268.011 C 258.809 268.243,260.693 268.850,262.295 269.614 L 263.500 270.188 262.200 270.076 C 261.055 269.977,260.831 270.018,260.325 270.416 C 259.808 270.823,259.686 270.843,259.125 270.614 C 258.043 270.173,257.615 270.144,257.107 270.477 C 256.334 270.983,255.604 270.864,254.200 270.000 C 252.768 269.119,252.275 269.050,250.600 269.500 C 248.620 270.031,247.207 269.798,248.254 269.112 C 250.156 267.865,253.657 267.440,257.318 268.011 M281.661 269.416 C 283.638 269.920,283.760 269.989,283.292 270.331 C 282.800 270.690,281.984 270.670,280.994 270.274 C 280.201 269.957,280.168 269.961,279.690 270.409 L 279.200 270.870 278.693 270.394 C 278.229 269.958,278.132 269.939,277.543 270.175 C 275.270 271.084,274.175 271.442,274.050 271.316 C 273.591 270.858,277.803 269.071,279.467 269.018 C 279.778 269.008,280.766 269.187,281.661 269.416 M127.260 269.899 C 128.752 270.159,132.674 271.407,132.989 271.722 C 133.050 271.783,132.131 271.768,130.946 271.689 C 129.033 271.561,128.748 271.585,128.397 271.903 C 127.905 272.348,126.994 272.337,126.217 271.878 C 125.653 271.545,125.570 271.546,124.400 271.900 L 123.175 272.271 122.083 271.735 C 120.823 271.117,120.114 271.082,117.400 271.500 C 114.020 272.021,113.759 271.815,116.529 270.812 C 119.797 269.630,123.775 269.291,127.260 269.899 M285.800 270.600 C 285.800 270.710,285.580 270.800,285.312 270.800 C 285.043 270.800,284.768 270.710,284.700 270.600 C 284.628 270.483,284.831 270.400,285.188 270.400 C 285.525 270.400,285.800 270.490,285.800 270.600 M225.500 287.493 C 224.730 287.742,222.435 288.553,220.400 289.296 C 206.853 294.239,204.510 294.745,198.110 294.109 C 194.050 293.706,194.311 293.644,194.697 294.917 C 196.196 299.858,191.324 299.473,184.230 294.089 C 180.218 291.045,179.776 290.918,177.803 292.250 C 177.111 292.718,176.176 293.349,175.727 293.653 C 173.634 295.070,171.595 294.965,168.000 293.254 C 164.777 291.720,164.331 291.831,163.690 294.319 C 163.337 295.687,162.376 297.210,161.560 297.692 C 160.771 298.158,159.429 297.518,157.332 295.677 C 154.189 292.918,152.704 291.785,152.307 291.843 C 151.890 291.903,151.868 291.939,150.616 294.627 C 149.202 297.661,146.829 299.563,140.900 302.418 C 132.895 306.271,123.836 307.329,113.507 305.616 C 111.530 305.288,109.888 305.045,109.858 305.076 C 109.608 305.325,114.188 308.849,116.929 310.517 C 131.964 319.667,148.903 322.280,166.165 318.112 C 172.531 316.575,173.112 316.500,178.600 316.505 C 182.174 316.508,184.095 316.601,185.700 316.847 C 186.910 317.032,189.925 317.500,192.400 317.887 C 208.064 320.332,219.893 319.668,231.092 315.715 C 234.160 314.632,234.043 314.637,238.783 315.392 C 247.617 316.798,261.938 316.975,269.400 315.771 C 280.525 313.975,293.591 307.567,300.287 300.623 C 301.307 299.566,301.145 299.460,299.257 299.955 C 298.401 300.180,296.800 300.600,295.700 300.889 C 283.567 304.078,268.490 302.739,255.056 297.281 C 250.752 295.532,250.576 295.508,250.147 296.599 C 249.383 298.545,248.054 298.028,244.204 294.290 C 241.068 291.244,241.076 291.249,239.038 291.724 C 234.897 292.689,232.622 292.111,230.043 289.441 C 228.505 287.848,227.462 286.987,227.111 287.020 C 226.995 287.031,226.270 287.243,225.500 287.493 M182.019 296.110 C 183.285 296.764,183.740 298.340,183.010 299.537 C 182.044 301.122,179.501 301.030,178.653 299.381 C 177.618 297.367,179.991 295.061,182.019 296.110 " stroke="none" fill="#040404" fill-rule="evenodd"></path><path id="path1" d="M166.665 30.488 C 161.721 32.034,159.808 38.606,163.184 42.451 C 165.456 45.039,169.835 44.922,172.617 42.199 C 178.144 36.791,173.806 28.255,166.665 30.488 M136.833 40.850 C 134.270 42.088,132.084 43.256,131.978 43.447 C 131.821 43.727,133.192 66.470,133.673 71.571 C 133.784 72.739,134.339 73.460,125.602 61.100 C 117.198 49.210,117.491 49.600,116.967 49.600 C 116.417 49.600,107.071 54.327,106.939 54.672 C 106.866 54.860,111.419 60.980,119.482 71.534 L 132.140 88.100 136.884 103.096 C 141.705 118.337,141.802 118.611,142.374 118.586 C 143.515 118.536,152.102 113.883,152.160 113.283 C 152.198 112.896,150.419 106.956,147.399 97.383 L 142.577 82.100 142.629 60.627 C 142.680 39.747,142.671 39.147,142.303 38.877 C 141.741 38.467,141.858 38.425,136.833 40.850 M257.048 42.650 C 256.690 43.097,255.875 44.830,254.299 48.500 C 252.427 52.859,252.888 52.460,250.500 51.781 C 247.116 50.819,247.516 50.572,245.301 54.998 C 242.756 60.083,242.705 59.759,246.200 60.715 C 247.846 61.165,248.482 61.423,248.438 61.622 C 248.404 61.775,246.902 65.151,245.099 69.124 C 239.038 82.482,235.706 90.570,234.788 94.149 C 232.508 103.047,237.243 108.523,249.354 110.991 C 254.099 111.958,253.902 112.082,256.320 106.602 C 258.591 101.454,258.585 101.400,255.674 101.400 C 248.628 101.400,245.774 99.378,246.681 95.027 C 247.186 92.605,258.896 64.755,259.457 64.640 C 259.619 64.607,261.992 65.170,264.732 65.890 C 271.394 67.642,270.374 68.012,273.004 62.891 C 275.440 58.149,275.807 58.698,269.000 56.899 C 263.142 55.351,263.364 55.430,263.518 54.933 C 263.592 54.695,264.593 52.550,265.742 50.166 C 268.449 44.549,268.820 45.254,262.237 43.510 C 257.776 42.328,257.362 42.259,257.048 42.650 M216.673 46.099 C 214.208 46.635,211.118 48.180,208.506 50.183 C 206.603 51.642,206.711 51.727,207.081 49.075 C 207.538 45.797,207.854 45.997,202.245 46.012 C 196.397 46.026,196.171 46.065,195.863 47.102 C 195.355 48.808,188.521 102.201,188.777 102.457 C 189.020 102.699,198.620 102.715,199.450 102.474 C 200.089 102.289,200.168 101.792,203.105 79.476 C 204.710 67.279,206.085 57.244,206.162 57.175 C 207.981 55.527,214.412 55.804,216.474 57.619 C 218.769 59.639,218.749 60.280,215.638 83.501 C 212.948 103.582,213.041 102.701,213.591 102.995 C 214.050 103.241,223.708 103.044,224.227 102.778 C 224.690 102.541,224.530 103.584,227.426 81.900 C 229.808 64.064,230.071 61.802,230.075 59.100 C 230.089 49.361,224.885 44.313,216.673 46.099 M169.502 49.606 C 164.313 50.926,164.100 51.044,164.297 52.481 C 164.358 52.932,165.530 65.000,166.901 79.300 C 169.811 109.645,169.535 107.151,170.011 107.406 C 170.461 107.647,180.052 105.319,180.514 104.857 C 180.911 104.460,181.066 106.319,178.126 76.219 C 175.736 51.762,175.422 48.911,175.092 48.669 C 174.591 48.303,174.691 48.286,169.502 49.606 M300.000 52.121 C 294.750 53.525,292.668 59.831,296.338 63.213 C 300.824 67.349,308.530 64.519,308.955 58.580 C 309.279 54.055,304.812 50.833,300.000 52.121 M289.668 67.154 C 289.324 67.373,258.800 113.578,258.800 113.880 C 258.800 114.346,259.450 114.717,263.872 116.770 C 268.633 118.981,268.735 119.010,269.348 118.350 C 270.325 117.297,299.800 72.366,299.800 71.929 C 299.800 71.219,299.426 70.986,294.949 68.918 C 290.986 67.087,290.191 66.821,289.668 67.154 M327.654 68.401 C 323.951 69.371,321.033 71.385,315.600 76.718 L 312.500 79.762 310.730 78.481 C 308.345 76.754,308.558 76.698,304.923 80.018 C 300.937 83.657,300.969 83.492,303.883 85.513 C 304.825 86.166,305.597 86.752,305.598 86.815 C 305.599 86.878,298.266 94.438,289.302 103.615 C 280.338 112.792,273.003 120.441,273.002 120.613 C 272.999 121.102,280.432 126.820,281.637 127.256 C 282.168 127.448,282.183 127.433,298.827 110.076 L 314.614 93.612 317.557 95.742 C 319.176 96.914,321.110 98.316,321.856 98.857 C 323.607 100.128,323.485 100.173,327.145 96.890 C 331.355 93.114,331.478 93.742,325.714 89.600 L 321.399 86.500 323.551 84.395 C 330.502 77.594,334.124 77.774,339.799 85.204 C 341.743 87.749,341.215 87.877,345.511 83.818 C 349.708 79.852,349.709 79.897,345.405 75.599 C 339.182 69.387,333.180 66.953,327.654 68.401 M94.880 83.012 C 86.796 84.052,79.806 93.847,80.794 102.750 C 82.111 114.610,95.168 133.336,104.966 137.414 C 112.600 140.593,121.364 136.300,128.265 126.003 C 129.262 124.515,129.317 124.691,126.507 120.402 C 123.067 115.154,122.919 115.119,120.475 119.001 C 115.132 127.489,110.543 128.851,104.555 123.728 C 103.009 122.405,100.895 119.806,101.114 119.497 C 101.216 119.353,104.990 115.936,109.500 111.903 C 118.473 103.880,118.800 103.568,118.800 103.016 C 118.800 101.848,110.966 91.333,107.716 88.140 C 103.903 84.393,99.089 82.471,94.880 83.012 M98.276 94.954 C 100.965 96.367,105.400 101.428,105.400 103.083 C 105.400 103.528,96.267 112.400,95.808 112.400 C 95.593 112.400,93.208 108.276,92.301 106.335 C 89.856 101.103,89.999 98.125,92.821 95.513 C 94.701 93.772,95.811 93.659,98.276 94.954 M48.168 100.758 C 46.830 102.353,42.758 109.226,42.838 109.753 C 42.886 110.067,46.367 115.063,51.025 121.500 C 55.482 127.660,59.201 132.822,59.289 132.971 C 59.527 133.373,59.648 133.421,46.611 127.952 C 33.100 122.285,33.775 122.539,33.236 122.917 C 32.862 123.179,28.117 130.686,27.578 131.867 C 27.212 132.671,26.263 132.270,47.091 140.104 C 65.069 146.866,66.506 147.441,67.466 148.255 C 68.035 148.737,73.443 153.344,79.484 158.493 C 90.825 168.159,90.931 168.241,91.454 167.718 C 92.151 167.020,97.000 159.018,97.000 158.565 C 97.000 157.928,97.356 158.248,83.900 146.760 L 72.300 136.856 61.122 118.878 C 47.964 97.716,49.231 99.489,48.168 100.758 M339.551 106.550 C 338.615 107.513,330.048 116.580,320.513 126.700 L 303.177 145.100 291.839 149.119 C 280.484 153.144,279.742 153.456,279.931 154.135 C 280.232 155.217,286.715 162.100,287.410 162.076 C 287.789 162.062,296.875 158.926,307.600 155.107 C 328.513 147.659,328.670 147.603,350.694 139.772 C 358.720 136.918,365.356 134.474,365.441 134.341 C 365.525 134.209,365.595 133.906,365.597 133.668 C 365.601 133.114,359.301 125.833,358.683 125.678 C 358.377 125.601,352.323 128.053,339.181 133.578 C 328.699 137.984,320.094 141.561,320.060 141.526 C 320.026 141.492,326.478 135.176,334.399 127.490 C 346.070 116.165,348.800 113.419,348.800 113.005 C 348.800 112.542,343.304 105.871,342.246 105.050 C 341.643 104.583,341.256 104.798,339.551 106.550 M196.417 188.827 C 179.408 190.044,166.415 204.339,166.402 221.850 L 166.400 224.000 167.175 224.000 L 167.950 224.000 168.051 220.450 C 168.750 195.899,195.749 181.955,216.285 195.538 C 220.197 198.125,224.454 202.920,226.540 207.088 C 227.410 208.826,227.272 208.701,227.994 208.403 C 228.730 208.098,228.733 208.051,228.077 206.743 C 222.971 196.547,212.466 189.463,201.600 188.885 C 200.555 188.829,199.430 188.760,199.100 188.731 C 198.770 188.702,197.563 188.745,196.417 188.827 M190.463 193.493 C 189.137 194.070,188.703 196.175,189.672 197.335 L 190.144 197.900 188.879 201.809 L 187.615 205.717 182.573 206.468 L 177.531 207.220 177.115 206.729 C 175.116 204.365,171.478 206.850,172.903 209.607 C 173.808 211.355,177.600 210.944,177.600 209.097 C 177.600 208.732,177.577 208.737,183.188 207.894 C 186.983 207.324,187.923 207.239,188.126 207.445 C 188.263 207.585,189.403 208.911,190.659 210.390 L 192.942 213.080 191.506 217.385 C 190.074 221.674,190.066 221.690,189.426 221.821 C 187.202 222.276,186.790 225.461,188.820 226.510 C 191.221 227.752,193.791 224.607,191.964 222.662 L 191.513 222.182 192.955 217.839 L 194.398 213.497 199.949 211.839 C 206.563 209.865,204.786 209.803,213.750 212.317 C 214.584 212.551,214.800 212.696,214.800 213.026 C 214.800 214.814,217.890 215.561,219.185 214.087 C 221.282 211.699,217.815 208.426,215.496 210.604 L 215.048 211.025 211.074 209.981 C 208.888 209.407,207.066 208.909,207.024 208.875 C 206.982 208.842,208.238 207.011,209.815 204.807 L 212.683 200.800 213.626 200.800 C 216.062 200.800,217.039 197.616,215.020 196.257 C 212.772 194.745,210.145 197.089,211.271 199.604 C 211.363 199.808,210.373 201.347,208.250 204.299 L 205.094 208.690 199.597 210.343 C 196.574 211.252,194.084 211.997,194.065 211.998 C 193.933 212.006,189.026 206.119,189.083 206.022 C 189.123 205.955,189.710 204.168,190.386 202.050 C 191.561 198.375,191.640 198.200,192.129 198.200 C 192.442 198.200,192.899 197.941,193.308 197.532 C 195.398 195.442,193.190 192.307,190.463 193.493 M192.400 195.000 C 192.881 195.481,192.900 195.768,192.489 196.355 C 191.935 197.146,190.600 196.795,190.600 195.859 C 190.600 194.750,191.650 194.250,192.400 195.000 M214.234 197.531 C 214.689 197.943,214.703 198.554,214.269 199.034 C 213.838 199.511,213.298 199.498,212.800 199.000 C 211.825 198.025,213.212 196.606,214.234 197.531 M231.381 206.256 C 222.729 216.194,219.277 218.423,207.000 221.999 C 199.162 224.282,196.758 225.323,192.068 228.464 C 188.172 231.073,188.461 230.702,188.221 233.400 C 187.871 237.327,186.773 239.577,184.076 241.894 C 183.303 242.557,182.183 243.517,181.586 244.027 C 180.091 245.302,180.206 245.300,184.400 243.967 C 187.426 243.005,191.149 241.857,200.298 239.064 C 201.066 238.830,200.213 239.569,198.035 241.025 C 195.464 242.744,193.266 243.867,189.100 245.588 C 187.340 246.315,185.916 246.989,185.936 247.085 C 185.996 247.376,191.692 249.975,193.866 250.702 C 206.388 254.892,220.667 248.447,226.473 235.985 C 229.441 229.614,231.088 222.984,233.467 207.842 C 233.835 205.500,234.073 203.545,233.996 203.498 C 233.920 203.450,232.743 204.691,231.381 206.256 M175.834 207.531 C 176.541 208.170,176.045 209.400,175.080 209.400 C 174.170 209.400,173.740 208.260,174.400 207.600 C 174.887 207.113,175.348 207.091,175.834 207.531 M231.600 209.933 C 228.228 232.694,223.429 242.479,213.100 247.655 C 205.820 251.303,198.882 251.424,191.250 248.037 C 189.286 247.166,189.297 247.196,190.750 246.609 C 195.309 244.767,199.070 242.423,204.080 238.300 C 206.850 236.020,207.272 235.600,206.792 235.600 C 206.570 235.600,192.764 239.727,189.107 240.886 C 186.586 241.686,186.639 241.689,187.326 240.786 C 188.698 238.982,189.798 235.549,189.802 233.058 L 189.803 231.900 191.852 230.474 C 197.089 226.829,199.519 225.749,207.998 223.302 C 219.054 220.111,223.287 217.585,229.898 210.231 C 231.990 207.904,231.899 207.920,231.600 209.933 M218.034 211.731 C 218.511 212.162,218.498 212.702,218.000 213.200 C 217.489 213.711,217.106 213.706,216.583 213.183 C 215.579 212.179,216.981 210.778,218.034 211.731 M173.693 212.950 C 174.399 214.775,175.241 219.148,175.342 221.513 C 175.469 224.476,175.361 225.279,174.144 230.400 C 173.014 235.159,172.950 238.215,173.930 240.644 C 174.492 242.039,177.301 246.600,177.597 246.600 C 177.664 246.600,178.022 245.228,178.393 243.550 C 179.441 238.808,179.628 238.517,179.485 241.850 C 179.399 243.866,179.430 244.600,179.599 244.600 C 179.984 244.600,183.743 241.622,184.696 240.562 C 189.094 235.671,188.540 227.360,183.385 220.882 C 181.152 218.075,173.138 211.517,173.693 212.950 M179.107 218.752 C 186.862 225.608,188.467 234.712,182.878 240.140 C 180.981 241.983,181.100 242.063,181.097 238.950 C 181.094 235.847,180.832 232.400,180.600 232.400 C 180.263 232.400,178.331 237.409,177.650 240.049 C 176.838 243.191,176.835 243.193,175.738 240.853 C 174.340 237.868,174.371 236.290,175.960 229.600 C 177.170 224.509,177.270 220.224,176.263 216.720 C 176.116 216.206,176.705 216.627,179.107 218.752 M190.893 223.592 C 191.355 224.103,191.157 224.937,190.503 225.235 C 189.462 225.709,188.505 224.323,189.314 223.514 C 189.744 223.084,190.465 223.120,190.893 223.592 " stroke="none" fill="#fbfbfb" fill-rule="evenodd"></path><path id="path2" d="M175.446 32.966 C 178.363 38.850,173.105 46.301,166.626 45.466 L 165.700 45.347 166.400 46.091 C 168.198 48.001,169.557 48.375,172.298 47.714 C 173.483 47.429,174.645 47.259,174.970 47.324 C 176.493 47.629,179.327 44.654,180.205 41.829 C 181.381 38.046,179.670 33.791,176.352 32.242 C 174.889 31.559,174.789 31.639,175.446 32.966 M145.599 39.185 C 145.323 39.270,144.805 39.490,144.449 39.675 L 143.800 40.010 143.800 61.034 L 143.800 82.058 148.600 97.304 C 151.240 105.690,153.400 112.870,153.400 113.260 C 153.400 114.473,152.768 114.957,148.535 116.983 L 144.634 118.851 144.908 119.761 C 145.661 122.262,146.485 122.190,152.804 119.076 C 158.057 116.487,158.200 116.377,158.200 114.902 C 158.200 114.528,156.038 107.357,153.397 98.964 L 148.593 83.706 148.604 62.128 C 148.615 38.938,148.658 39.959,147.650 39.431 C 147.081 39.132,146.136 39.019,145.599 39.185 M142.654 44.800 C 142.654 45.295,142.693 45.498,142.741 45.250 C 142.789 45.002,142.789 44.598,142.741 44.350 C 142.693 44.102,142.654 44.305,142.654 44.800 M266.614 51.018 C 265.706 52.902,265.039 54.509,265.131 54.591 C 265.466 54.884,268.819 55.661,268.977 55.481 C 269.064 55.381,269.661 54.186,270.302 52.823 C 271.720 49.815,271.671 49.071,270.000 48.267 C 268.210 47.405,268.452 47.208,266.614 51.018 M208.400 48.524 C 208.400 48.790,208.454 48.804,208.700 48.600 C 208.865 48.463,209.000 48.317,209.000 48.276 C 209.000 48.234,208.865 48.200,208.700 48.200 C 208.535 48.200,208.400 48.346,208.400 48.524 M229.609 50.687 C 230.856 53.437,231.542 57.358,231.309 60.393 C 231.179 62.079,226.112 100.941,225.872 102.097 C 225.483 103.963,224.813 104.200,219.923 104.200 C 215.191 104.200,215.400 104.136,215.400 105.577 C 215.400 107.906,215.786 108.027,222.652 107.861 C 228.472 107.720,228.820 107.633,229.336 106.197 C 229.641 105.349,234.774 66.505,234.937 63.814 C 235.281 58.121,233.198 52.389,229.933 50.045 L 229.020 49.390 229.609 50.687 M177.450 50.024 C 176.659 50.252,176.350 45.943,179.417 77.460 C 182.254 106.621,182.173 105.215,181.067 105.940 C 180.807 106.110,178.728 106.717,176.447 107.289 L 172.300 108.328 172.367 109.214 C 172.513 111.139,173.576 111.776,175.848 111.300 C 184.191 109.553,186.203 108.706,186.197 106.947 C 186.190 105.049,180.838 51.445,180.614 51.027 C 180.074 50.016,178.835 49.624,177.450 50.024 M120.428 50.298 C 120.015 50.483,119.796 50.702,119.860 50.867 C 120.049 51.360,132.054 68.212,132.149 68.118 C 132.200 68.067,132.176 66.890,132.096 65.503 L 131.951 62.980 127.682 56.940 C 122.589 49.734,122.292 49.462,120.428 50.298 M209.400 57.400 C 208.905 57.500,208.185 57.673,207.800 57.785 L 207.100 57.987 204.236 79.844 C 202.259 94.933,201.268 101.917,201.036 102.400 C 200.430 103.663,199.858 103.799,195.173 103.800 C 191.063 103.800,191.046 103.802,190.926 104.250 C 190.521 105.761,191.069 107.039,192.259 107.358 C 193.525 107.697,203.247 107.347,203.867 106.940 C 204.858 106.291,204.932 105.855,207.861 83.500 L 210.717 61.700 211.809 61.323 C 212.573 61.059,213.511 60.939,214.941 60.923 L 216.982 60.900 216.863 60.400 C 216.270 57.912,213.127 56.648,209.400 57.400 M310.060 59.420 C 308.817 65.960,300.480 68.634,295.579 64.064 L 294.545 63.100 294.690 64.274 C 295.030 67.030,295.696 67.995,297.984 69.045 C 298.928 69.479,299.991 70.113,300.348 70.454 C 301.921 71.961,306.701 71.081,309.246 68.816 C 311.890 66.461,312.579 61.941,310.749 58.951 L 310.291 58.202 310.060 59.420 M274.352 62.833 C 273.858 63.750,273.069 65.246,272.600 66.159 C 271.213 68.853,271.247 68.849,264.800 67.121 C 262.215 66.427,260.037 65.914,259.960 65.981 C 259.779 66.135,252.566 83.024,250.000 89.300 C 247.345 95.792,247.133 97.026,248.415 98.486 C 249.405 99.614,250.125 99.740,250.412 98.836 C 250.902 97.296,262.011 70.802,262.327 70.420 C 262.364 70.376,264.496 70.893,267.065 71.570 C 274.060 73.412,273.577 73.590,276.315 68.159 C 278.921 62.991,278.863 61.843,275.969 61.300 L 275.251 61.165 274.352 62.833 M244.714 62.174 C 244.135 63.293,244.575 65.400,245.388 65.400 C 245.514 65.400,246.457 63.496,246.936 62.275 C 246.986 62.145,246.716 61.991,246.298 61.913 C 245.898 61.838,245.449 61.730,245.299 61.672 C 245.136 61.609,244.902 61.810,244.714 62.174 M290.903 87.954 C 271.210 117.818,270.079 119.500,269.520 119.754 C 268.611 120.169,268.243 120.060,264.131 118.158 L 260.149 116.316 259.675 116.908 C 257.940 119.077,258.518 119.720,264.870 122.688 C 270.521 125.329,271.116 125.377,272.398 123.304 L 272.824 122.614 272.312 121.861 C 271.268 120.324,271.184 120.451,277.321 114.200 C 280.381 111.083,280.986 110.349,282.847 107.500 C 283.997 105.740,288.911 98.283,293.769 90.929 C 303.415 76.324,303.206 76.710,302.269 75.281 C 301.973 74.828,300.659 73.994,300.258 74.004 C 300.171 74.006,295.962 80.283,290.903 87.954 M329.482 81.192 C 328.167 81.851,325.611 83.840,324.136 85.353 L 323.172 86.342 324.236 87.103 C 324.821 87.521,325.571 88.069,325.903 88.319 L 326.505 88.775 327.803 87.760 C 332.187 84.332,335.077 85.121,339.451 90.941 C 342.068 94.423,342.122 94.408,348.139 88.583 C 351.014 85.800,351.168 85.456,350.323 83.730 C 349.319 81.677,349.453 81.646,346.288 84.660 C 341.442 89.272,341.409 89.276,338.608 85.542 C 335.346 81.195,332.339 79.761,329.482 81.192 M100.600 82.221 C 100.325 82.298,100.245 82.369,100.422 82.380 C 104.485 82.631,111.163 89.134,118.381 99.866 C 120.897 103.608,121.433 102.715,111.096 112.010 C 106.423 116.212,102.600 119.763,102.600 119.900 C 102.600 120.037,103.523 121.038,104.652 122.125 C 107.602 124.965,109.866 125.970,112.291 125.515 C 113.237 125.337,113.193 125.235,111.777 124.300 C 111.111 123.860,109.892 122.788,109.069 121.918 L 107.571 120.336 108.136 119.797 C 108.446 119.500,112.268 116.057,116.629 112.145 C 126.429 103.354,126.000 104.134,123.285 100.058 C 118.645 93.091,113.993 87.616,110.800 85.364 C 107.625 83.125,102.750 81.623,100.600 82.221 M301.818 86.710 C 301.311 87.288,301.200 87.586,301.200 88.374 C 301.200 89.714,301.262 89.709,302.656 88.257 C 303.855 87.009,303.883 86.955,303.498 86.668 C 302.566 85.972,302.464 85.975,301.818 86.710 M94.700 95.479 C 94.019 95.777,92.578 97.270,92.144 98.127 C 91.074 100.239,91.956 103.618,94.968 108.949 C 96.086 110.927,95.842 110.901,97.616 109.238 L 99.070 107.877 98.147 105.688 C 96.303 101.317,96.297 99.421,98.125 97.399 L 98.827 96.622 98.063 96.144 C 96.585 95.219,95.694 95.043,94.700 95.479 M299.429 111.150 C 291.040 119.922,283.802 127.402,283.345 127.771 C 281.978 128.875,281.500 128.714,277.525 125.818 C 273.518 122.899,273.851 123.031,273.050 124.031 C 271.643 125.788,272.086 126.501,276.644 129.817 C 281.699 133.495,281.545 133.400,282.441 133.400 C 283.636 133.400,282.999 134.020,299.605 116.698 C 308.199 107.734,315.320 100.400,315.429 100.400 C 315.538 100.400,317.258 101.584,319.251 103.032 C 324.541 106.873,324.073 106.882,328.551 102.841 C 332.920 98.897,333.177 98.251,331.101 96.427 C 330.172 95.612,330.471 95.470,327.500 98.129 C 323.471 101.735,323.881 101.743,318.672 97.971 C 316.566 96.447,314.807 95.200,314.763 95.200 C 314.718 95.200,307.818 102.377,299.429 111.150 M52.873 98.278 C 52.528 98.434,51.961 98.975,51.613 99.481 L 50.980 100.401 62.093 118.264 L 73.206 136.127 85.182 146.359 C 91.768 151.987,97.392 156.871,97.679 157.211 C 98.637 158.350,98.479 158.848,95.811 163.100 L 93.428 166.900 93.937 167.435 C 94.943 168.492,96.514 168.668,97.289 167.812 C 98.567 166.400,103.200 158.464,103.200 157.687 C 103.200 156.393,103.053 156.253,90.300 145.384 L 78.300 135.157 66.949 116.935 C 60.706 106.913,55.476 98.591,55.327 98.441 C 54.926 98.041,53.594 97.952,52.873 98.278 M257.008 107.923 C 254.973 112.512,254.979 112.506,252.365 112.476 C 247.193 112.416,239.844 109.702,236.558 106.639 L 235.617 105.761 235.807 106.426 C 237.328 111.728,245.491 116.409,254.138 116.935 C 257.088 117.114,258.798 116.098,257.886 114.707 C 257.367 113.915,257.612 113.296,259.691 110.149 C 262.269 106.247,262.242 104.869,259.584 104.649 L 258.500 104.559 257.008 107.923 M127.000 115.625 C 126.446 115.846,125.600 116.577,125.600 116.836 C 125.600 116.927,126.647 118.573,127.927 120.494 C 130.911 124.972,130.941 124.677,127.024 129.545 C 122.564 135.090,115.895 139.600,112.154 139.600 C 111.019 139.600,111.655 139.960,113.220 140.203 C 119.566 141.190,127.168 136.837,133.134 128.800 C 135.930 125.034,135.956 125.358,132.420 120.036 C 129.259 115.281,128.800 114.907,127.000 115.625 M338.900 124.713 C 326.024 137.192,324.924 138.303,325.800 137.943 C 326.185 137.785,328.050 137.002,329.944 136.203 L 333.389 134.750 341.292 127.066 C 349.761 118.833,349.600 119.011,349.600 117.860 C 349.600 117.142,348.809 115.597,348.443 115.602 C 348.364 115.603,344.070 119.703,338.900 124.713 M38.000 120.607 C 37.013 120.836,35.853 122.219,36.450 122.457 C 36.587 122.511,40.930 124.331,46.100 126.501 C 51.270 128.671,55.666 130.493,55.870 130.551 C 56.404 130.704,53.303 126.462,52.635 126.125 C 51.767 125.688,39.537 120.640,39.100 120.538 C 38.880 120.487,38.385 120.518,38.000 120.607 M357.400 138.591 C 320.446 151.856,287.998 163.284,287.266 163.291 C 286.246 163.302,286.161 163.228,282.860 159.450 C 281.490 157.882,280.329 156.600,280.278 156.600 C 278.910 156.600,277.712 158.411,278.257 159.656 C 278.756 160.797,285.198 167.968,285.944 168.215 C 287.006 168.565,286.738 168.651,305.300 162.046 C 314.870 158.640,332.285 152.454,344.000 148.298 C 367.384 140.002,366.400 140.420,366.400 138.784 C 366.400 137.668,365.355 135.957,364.713 136.021 C 364.596 136.033,361.305 137.189,357.400 138.591 M193.500 139.525 C 129.617 144.375,82.108 196.080,83.261 259.500 C 84.497 327.496,142.839 380.245,210.677 374.702 C 280.712 368.979,330.141 303.705,316.772 234.600 C 306.912 183.633,265.459 145.798,213.000 139.886 C 210.249 139.576,196.245 139.317,193.500 139.525 M204.400 170.602 C 238.163 172.648,265.368 194.805,273.673 227.019 C 276.667 238.631,276.176 257.793,272.676 265.943 C 272.287 266.848,272.028 267.684,272.100 267.800 C 272.240 268.026,272.367 268.011,275.873 267.363 C 278.438 266.889,278.929 266.938,282.274 268.006 C 285.796 269.131,288.346 269.738,291.369 270.174 C 292.837 270.385,294.135 270.655,294.254 270.774 C 295.087 271.607,288.822 274.384,283.873 275.376 C 281.871 275.777,280.283 276.301,279.015 276.980 L 278.330 277.346 280.383 277.598 C 283.330 277.959,288.962 277.575,299.400 276.301 L 303.500 275.800 304.071 276.450 C 306.285 278.971,305.402 280.105,298.297 283.861 C 293.990 286.138,294.053 286.249,299.757 286.415 C 304.350 286.548,304.641 286.623,306.282 288.096 L 307.065 288.798 306.505 289.849 C 305.003 292.674,300.836 295.284,294.650 297.278 C 290.744 298.536,289.420 298.655,280.632 298.541 C 267.849 298.376,265.902 297.819,248.500 289.354 C 230.319 280.510,228.078 280.323,215.075 286.560 C 206.693 290.580,204.849 291.100,199.000 291.089 C 192.407 291.077,187.791 289.787,182.900 286.588 C 176.482 282.390,172.841 281.238,164.597 280.795 C 153.256 280.186,144.839 281.320,125.200 286.105 C 116.587 288.203,112.958 289.014,108.672 289.798 C 106.817 290.137,105.210 290.457,105.100 290.509 C 104.990 290.561,106.520 290.557,108.500 290.500 C 114.707 290.321,119.583 289.583,124.513 288.075 L 126.854 287.359 129.407 289.097 L 131.959 290.835 135.486 290.618 C 143.802 290.105,145.530 290.460,145.748 292.727 C 145.977 295.110,143.413 297.664,137.933 300.509 C 127.801 305.769,113.730 304.716,101.665 297.794 C 96.338 294.738,94.561 292.835,95.207 290.877 C 95.659 289.510,96.661 289.116,102.064 288.184 C 109.424 286.915,113.999 285.657,122.900 282.455 C 142.791 275.300,145.806 274.787,163.200 275.600 C 176.449 276.219,182.008 275.186,195.522 269.590 C 200.288 267.616,200.928 267.473,206.100 267.225 C 210.617 267.008,211.306 266.873,214.056 265.663 L 215.663 264.957 218.444 266.206 L 221.225 267.454 222.962 266.631 C 225.971 265.204,226.398 265.278,228.964 267.679 L 230.598 269.207 232.449 269.161 C 234.097 269.121,234.443 269.178,235.600 269.680 C 240.696 271.893,244.298 273.082,250.400 274.566 C 257.804 276.367,266.658 277.800,270.383 277.800 C 271.991 277.800,271.648 277.695,267.800 277.011 C 256.391 274.983,248.656 272.627,231.500 265.954 C 213.764 259.055,212.355 259.051,197.700 265.852 C 180.462 273.851,172.539 275.625,159.500 274.404 C 147.927 273.320,140.833 274.367,127.019 279.198 L 122.954 280.620 118.427 280.096 C 107.344 278.813,102.302 277.323,98.894 274.325 C 97.518 273.114,97.900 272.902,102.200 272.492 C 104.764 272.247,107.567 271.548,112.692 269.876 C 122.150 266.789,123.268 266.631,127.600 267.765 C 130.269 268.463,130.116 268.495,129.716 267.318 C 123.872 250.103,125.805 227.688,134.581 210.900 C 146.653 187.808,168.758 173.232,195.800 170.534 C 197.331 170.381,201.271 170.412,204.400 170.602 M161.289 265.792 C 160.514 266.007,159.119 266.477,158.189 266.835 L 156.500 267.488 157.300 267.605 C 157.740 267.669,158.296 267.829,158.535 267.960 C 158.893 268.156,159.143 268.124,159.935 267.784 C 161.295 267.201,162.520 267.098,163.600 267.478 C 164.787 267.895,164.877 267.887,165.793 267.281 L 166.578 266.761 167.745 267.165 C 169.324 267.712,171.671 268.296,174.200 268.773 C 178.954 269.670,179.081 269.476,174.568 268.212 C 172.960 267.762,170.442 266.977,168.972 266.468 C 165.692 265.331,163.615 265.149,161.289 265.792 M251.951 267.994 C 250.585 268.243,248.468 268.977,248.205 269.293 C 247.791 269.793,248.344 269.819,250.419 269.396 C 252.714 268.928,253.008 268.974,254.542 270.029 C 255.605 270.760,256.565 270.874,257.156 270.340 C 257.639 269.903,257.843 269.912,258.829 270.415 L 259.642 270.830 260.122 270.380 C 260.512 270.013,260.809 269.935,261.728 269.959 C 263.067 269.994,263.064 269.987,261.400 269.313 C 258.424 268.105,254.413 267.545,251.951 267.994 M277.200 269.666 C 275.631 270.229,274.121 270.987,274.270 271.136 C 274.379 271.246,275.210 270.980,277.157 270.213 L 278.214 269.796 278.717 270.298 L 279.219 270.801 279.685 270.259 L 280.151 269.717 280.998 270.099 C 281.854 270.485,282.943 270.537,283.272 270.208 C 284.016 269.464,279.008 269.017,277.200 269.666 M121.336 269.809 C 119.590 270.004,117.369 270.568,115.883 271.195 L 114.900 271.610 115.900 271.525 C 116.450 271.478,117.769 271.324,118.831 271.182 L 120.763 270.924 121.800 271.462 C 122.999 272.084,123.390 272.115,124.643 271.688 C 125.510 271.393,125.598 271.398,126.326 271.788 C 127.265 272.292,127.749 272.307,128.257 271.850 C 128.578 271.562,128.965 271.509,130.458 271.552 C 131.455 271.581,132.232 271.567,132.185 271.523 C 131.074 270.467,124.602 269.445,121.336 269.809 M228.222 287.563 C 228.595 287.873,229.537 288.764,230.315 289.542 C 232.768 291.994,234.662 292.463,238.800 291.643 C 241.270 291.153,241.101 291.079,244.000 293.907 C 246.803 296.640,248.035 297.600,248.740 297.600 C 249.295 297.600,250.148 296.765,250.238 296.133 C 250.339 295.429,251.369 295.641,254.884 297.090 C 268.863 302.851,284.208 304.005,297.462 300.294 C 298.871 299.899,300.311 299.607,300.662 299.644 L 301.300 299.711 299.900 301.112 C 292.620 308.397,279.385 314.601,267.937 316.093 C 259.728 317.163,246.313 316.854,238.000 315.404 C 234.532 314.799,234.046 314.842,230.338 316.087 C 218.538 320.049,208.377 320.458,190.300 317.697 C 178.862 315.951,175.499 316.008,166.769 318.102 C 149.922 322.143,134.076 320.183,119.731 312.284 C 114.783 309.559,108.054 304.493,109.939 304.912 C 118.798 306.878,130.191 306.533,136.700 304.101 C 144.947 301.020,149.295 297.830,150.994 293.615 C 152.042 291.016,152.382 291.081,156.300 294.630 C 160.904 298.800,162.352 298.681,163.632 294.025 C 164.281 291.661,164.746 291.576,168.200 293.189 C 171.652 294.802,173.598 294.922,175.516 293.644 C 175.965 293.345,176.906 292.715,177.607 292.244 C 179.796 290.773,180.093 290.843,183.969 293.752 C 188.196 296.924,190.751 298.200,192.874 298.200 C 194.631 298.200,195.192 297.285,194.659 295.285 C 194.235 293.694,194.307 293.626,196.200 293.817 C 204.200 294.626,206.242 294.269,218.140 289.979 C 227.592 286.572,227.156 286.676,228.222 287.563 M179.307 296.707 C 177.599 298.414,179.166 301.104,181.524 300.512 C 184.084 299.869,183.572 296.000,180.927 296.000 C 180.148 296.000,179.909 296.104,179.307 296.707 " stroke="none" fill="#349cdc" fill-rule="evenodd"></path><path id="path3" d="M168.650 30.138 C 168.843 30.188,169.158 30.188,169.350 30.138 C 169.543 30.088,169.385 30.046,169.000 30.046 C 168.615 30.046,168.458 30.088,168.650 30.138 M176.262 36.700 C 176.263 37.360,176.300 37.606,176.345 37.246 C 176.389 36.887,176.389 36.347,176.343 36.046 C 176.297 35.746,176.261 36.040,176.262 36.700 M148.672 43.200 C 148.672 44.245,148.706 44.673,148.747 44.150 C 148.788 43.627,148.788 42.773,148.747 42.250 C 148.706 41.727,148.672 42.155,148.672 43.200 M142.693 56.500 C 142.693 62.550,142.719 65.054,142.750 62.064 C 142.781 59.074,142.781 54.124,142.750 51.064 C 142.719 48.004,142.693 50.450,142.693 56.500 M231.267 59.000 C 231.267 59.825,231.303 60.163,231.346 59.750 C 231.389 59.338,231.389 58.663,231.346 58.250 C 231.303 57.838,231.267 58.175,231.267 59.000 M132.050 64.900 C 132.053 65.340,132.094 65.496,132.141 65.248 C 132.189 64.999,132.187 64.639,132.137 64.448 C 132.087 64.256,132.048 64.460,132.050 64.900 M300.754 66.345 C 301.113 66.389,301.653 66.389,301.954 66.343 C 302.254 66.297,301.960 66.261,301.300 66.262 C 300.640 66.263,300.394 66.300,300.754 66.345 M132.227 67.562 C 132.208 68.034,132.128 68.180,131.950 68.073 C 131.806 67.987,131.827 68.080,132.000 68.295 C 132.345 68.722,132.515 68.253,132.341 67.350 C 132.280 67.031,132.247 67.092,132.227 67.562 M314.691 75.850 L 313.900 76.700 314.750 75.909 C 315.218 75.475,315.600 75.092,315.600 75.059 C 315.600 74.908,315.426 75.060,314.691 75.850 M179.246 76.800 C 179.246 77.185,179.288 77.343,179.338 77.150 C 179.388 76.958,179.388 76.642,179.338 76.450 C 179.288 76.258,179.246 76.415,179.246 76.800 M331.350 80.541 C 331.598 80.589,332.003 80.589,332.250 80.541 C 332.498 80.493,332.295 80.454,331.800 80.454 C 331.305 80.454,331.103 80.493,331.350 80.541 M348.091 82.850 L 347.300 83.700 348.150 82.909 C 348.618 82.475,349.000 82.092,349.000 82.059 C 349.000 81.908,348.826 82.060,348.091 82.850 M336.800 83.500 C 337.397 84.105,337.931 84.600,337.986 84.600 C 338.041 84.600,337.597 84.105,337.000 83.500 C 336.403 82.895,335.869 82.400,335.814 82.400 C 335.759 82.400,336.203 82.895,336.800 83.500 M323.891 85.450 L 323.100 86.300 323.950 85.509 C 324.418 85.075,324.800 84.692,324.800 84.659 C 324.800 84.508,324.626 84.660,323.891 85.450 M344.494 86.250 L 343.300 87.500 344.550 86.306 C 345.238 85.650,345.800 85.087,345.800 85.056 C 345.800 84.908,345.603 85.089,344.494 86.250 M108.592 87.450 C 109.082 87.973,109.510 88.400,109.542 88.400 C 109.692 88.400,109.533 88.220,108.650 87.392 L 107.700 86.500 108.592 87.450 M303.695 86.770 C 303.797 86.950,303.460 87.448,302.676 88.270 L 301.504 89.500 302.796 88.254 C 303.870 87.218,304.042 86.965,303.815 86.754 C 303.592 86.547,303.570 86.550,303.695 86.770 M348.589 88.150 L 347.900 88.900 348.650 88.211 C 349.063 87.832,349.400 87.494,349.400 87.461 C 349.400 87.308,349.231 87.452,348.589 88.150 M301.892 90.650 L 300.900 91.700 301.950 90.708 C 302.528 90.162,303.000 89.689,303.000 89.658 C 303.000 89.508,302.815 89.674,301.892 90.650 M344.687 91.850 L 344.100 92.500 344.750 91.913 C 345.356 91.365,345.492 91.200,345.337 91.200 C 345.303 91.200,345.010 91.493,344.687 91.850 M327.687 97.850 L 327.100 98.500 327.750 97.913 C 328.108 97.590,328.400 97.297,328.400 97.263 C 328.400 97.108,328.235 97.244,327.687 97.850 M310.495 99.450 L 309.100 100.900 310.550 99.505 C 311.897 98.210,312.091 98.000,311.945 98.000 C 311.914 98.000,311.262 98.653,310.495 99.450 M293.292 99.450 L 292.300 100.500 293.350 99.508 C 293.928 98.962,294.400 98.489,294.400 98.458 C 294.400 98.308,294.215 98.474,293.292 99.450 M254.056 101.347 C 254.582 101.389,255.392 101.388,255.856 101.346 C 256.320 101.304,255.890 101.270,254.900 101.271 C 253.910 101.272,253.530 101.306,254.056 101.347 M288.287 102.850 L 287.700 103.500 288.350 102.913 C 288.956 102.365,289.092 102.200,288.937 102.200 C 288.903 102.200,288.610 102.493,288.287 102.850 M191.954 102.745 C 192.313 102.789,192.853 102.789,193.154 102.743 C 193.454 102.697,193.160 102.661,192.500 102.662 C 191.840 102.663,191.594 102.700,191.954 102.745 M305.895 104.250 L 304.500 105.700 305.950 104.305 C 307.297 103.010,307.491 102.800,307.345 102.800 C 307.314 102.800,306.662 103.453,305.895 104.250 M312.000 103.700 C 311.514 104.195,311.162 104.600,311.217 104.600 C 311.272 104.600,311.714 104.195,312.200 103.700 C 312.686 103.205,313.038 102.800,312.983 102.800 C 312.928 102.800,312.486 103.205,312.000 103.700 M181.857 103.900 C 181.859 104.450,181.898 104.651,181.944 104.347 C 181.989 104.043,181.988 103.593,181.941 103.347 C 181.893 103.101,181.856 103.350,181.857 103.900 M218.154 103.145 C 218.513 103.189,219.053 103.189,219.354 103.143 C 219.654 103.097,219.360 103.061,218.700 103.062 C 218.040 103.063,217.794 103.100,218.154 103.145 M195.958 103.748 C 196.650 103.787,197.730 103.787,198.358 103.748 C 198.986 103.708,198.420 103.676,197.100 103.676 C 195.780 103.677,195.266 103.709,195.958 103.748 M221.755 104.147 C 222.226 104.189,222.946 104.188,223.355 104.145 C 223.765 104.102,223.380 104.068,222.500 104.069 C 221.620 104.069,221.285 104.104,221.755 104.147 M118.691 105.050 L 117.900 105.900 118.750 105.109 C 119.540 104.374,119.692 104.200,119.541 104.200 C 119.508 104.200,119.125 104.583,118.691 105.050 M235.680 106.050 C 235.601 106.188,235.612 106.231,235.705 106.146 C 235.799 106.061,236.240 106.331,236.687 106.746 L 237.500 107.500 236.709 106.650 C 235.811 105.684,235.870 105.719,235.680 106.050 M116.487 107.050 L 115.900 107.700 116.550 107.113 C 116.908 106.790,117.200 106.497,117.200 106.463 C 117.200 106.308,117.035 106.444,116.487 107.050 M284.800 108.100 C 284.314 108.595,283.962 109.000,284.017 109.000 C 284.072 109.000,284.514 108.595,285.000 108.100 C 285.486 107.605,285.838 107.200,285.783 107.200 C 285.728 107.200,285.286 107.605,284.800 108.100 M301.295 109.050 L 299.900 110.500 301.350 109.105 C 302.697 107.810,302.891 107.600,302.745 107.600 C 302.714 107.600,302.062 108.253,301.295 109.050 M307.400 108.500 C 306.914 108.995,306.562 109.400,306.617 109.400 C 306.672 109.400,307.114 108.995,307.600 108.500 C 308.086 108.005,308.438 107.600,308.383 107.600 C 308.328 107.600,307.886 108.005,307.400 108.500 M98.287 108.650 L 97.700 109.300 98.350 108.713 C 98.956 108.165,99.092 108.000,98.937 108.000 C 98.903 108.000,98.610 108.293,98.287 108.650 M112.487 110.650 L 111.900 111.300 112.550 110.713 C 112.908 110.390,113.200 110.097,113.200 110.063 C 113.200 109.908,113.035 110.044,112.487 110.650 M110.487 112.450 L 109.900 113.100 110.550 112.513 C 110.908 112.190,111.200 111.897,111.200 111.863 C 111.200 111.708,111.035 111.844,110.487 112.450 M251.850 112.546 C 252.263 112.589,252.938 112.589,253.350 112.546 C 253.763 112.503,253.425 112.467,252.600 112.467 C 251.775 112.467,251.438 112.503,251.850 112.546 M296.695 113.850 L 295.300 115.300 296.750 113.905 C 298.097 112.610,298.291 112.400,298.145 112.400 C 298.114 112.400,297.462 113.053,296.695 113.850 M302.800 113.300 C 302.314 113.795,301.962 114.200,302.017 114.200 C 302.072 114.200,302.514 113.795,303.000 113.300 C 303.486 112.805,303.838 112.400,303.783 112.400 C 303.728 112.400,303.286 112.805,302.800 113.300 M108.487 114.250 L 107.900 114.900 108.550 114.313 C 108.908 113.990,109.200 113.697,109.200 113.663 C 109.200 113.508,109.035 113.644,108.487 114.250 M275.796 115.750 L 273.700 117.900 275.850 115.804 C 277.032 114.651,278.000 113.683,278.000 113.654 C 278.000 113.509,277.744 113.753,275.796 115.750 M276.292 116.850 L 275.300 117.900 276.350 116.908 C 276.928 116.362,277.400 115.889,277.400 115.858 C 277.400 115.708,277.215 115.874,276.292 116.850 M346.400 117.300 C 345.581 118.125,344.955 118.800,345.010 118.800 C 345.065 118.800,345.781 118.125,346.600 117.300 C 347.419 116.475,348.045 115.800,347.990 115.800 C 347.935 115.800,347.219 116.475,346.400 117.300 M104.487 117.850 L 103.900 118.500 104.550 117.913 C 104.908 117.590,105.200 117.297,105.200 117.263 C 105.200 117.108,105.035 117.244,104.487 117.850 M292.095 118.650 L 290.700 120.100 292.150 118.705 C 293.497 117.410,293.691 117.200,293.545 117.200 C 293.514 117.200,292.862 117.853,292.095 118.650 M298.200 118.100 C 297.714 118.595,297.362 119.000,297.417 119.000 C 297.472 119.000,297.914 118.595,298.400 118.100 C 298.886 117.605,299.238 117.200,299.183 117.200 C 299.128 117.200,298.686 117.605,298.200 118.100 M344.000 118.100 C 343.514 118.595,343.162 119.000,343.217 119.000 C 343.272 119.000,343.714 118.595,344.200 118.100 C 344.686 117.605,345.038 117.200,344.983 117.200 C 344.928 117.200,344.486 117.605,344.000 118.100 M268.250 119.938 C 268.443 119.988,268.757 119.988,268.950 119.938 C 269.143 119.888,268.985 119.846,268.600 119.846 C 268.215 119.846,268.058 119.888,268.250 119.938 M104.200 121.900 C 104.909 122.615,105.533 123.200,105.588 123.200 C 105.643 123.200,105.109 122.615,104.400 121.900 C 103.691 121.185,103.067 120.600,103.012 120.600 C 102.957 120.600,103.491 121.185,104.200 121.900 M339.996 123.550 L 337.900 125.700 340.050 123.604 C 341.233 122.451,342.200 121.483,342.200 121.454 C 342.200 121.309,341.944 121.553,339.996 123.550 M287.495 123.450 L 286.100 124.900 287.550 123.505 C 288.897 122.210,289.091 122.000,288.945 122.000 C 288.914 122.000,288.262 122.653,287.495 123.450 M293.600 122.900 C 293.114 123.395,292.762 123.800,292.817 123.800 C 292.872 123.800,293.314 123.395,293.800 122.900 C 294.286 122.405,294.638 122.000,294.583 122.000 C 294.528 122.000,294.086 122.405,293.600 122.900 M337.291 124.650 L 336.500 125.500 337.350 124.709 C 338.140 123.974,338.292 123.800,338.141 123.800 C 338.108 123.800,337.725 124.183,337.291 124.650 M110.752 125.741 C 111.001 125.789,111.361 125.787,111.552 125.737 C 111.744 125.687,111.540 125.648,111.100 125.650 C 110.660 125.653,110.504 125.694,110.752 125.741 M289.000 127.700 C 288.514 128.195,288.162 128.600,288.217 128.600 C 288.272 128.600,288.714 128.195,289.200 127.700 C 289.686 127.205,290.038 126.800,289.983 126.800 C 289.928 126.800,289.486 127.205,289.000 127.700 M333.096 130.250 L 331.100 132.300 333.150 130.304 C 334.278 129.206,335.200 128.283,335.200 128.254 C 335.200 128.109,334.950 128.346,333.096 130.250 M330.200 131.500 C 329.714 131.995,329.362 132.400,329.417 132.400 C 329.472 132.400,329.914 131.995,330.400 131.500 C 330.886 131.005,331.238 130.600,331.183 130.600 C 331.128 130.600,330.686 131.005,330.200 131.500 M124.295 132.450 L 122.700 134.100 124.350 132.505 C 125.882 131.023,126.091 130.800,125.945 130.800 C 125.915 130.800,125.173 131.542,124.295 132.450 M284.687 132.250 L 284.100 132.900 284.750 132.313 C 285.108 131.990,285.400 131.697,285.400 131.663 C 285.400 131.508,285.235 131.644,284.687 132.250 M326.500 136.600 C 325.515 137.590,324.819 138.400,324.954 138.400 C 325.089 138.400,325.200 138.305,325.200 138.188 C 325.200 138.072,325.313 138.041,325.450 138.120 C 325.588 138.199,325.630 138.187,325.544 138.093 C 325.458 137.998,326.086 137.219,326.939 136.361 C 327.792 135.502,328.446 134.800,328.391 134.800 C 328.336 134.800,327.485 135.610,326.500 136.600 M323.291 138.250 L 322.500 139.100 323.350 138.309 C 324.140 137.574,324.292 137.400,324.141 137.400 C 324.108 137.400,323.725 137.782,323.291 138.250 M196.650 170.538 C 196.843 170.588,197.158 170.588,197.350 170.538 C 197.543 170.488,197.385 170.446,197.000 170.446 C 196.615 170.446,196.458 170.488,196.650 170.538 M200.850 170.543 C 201.153 170.589,201.648 170.589,201.950 170.543 C 202.253 170.497,202.005 170.460,201.400 170.460 C 200.795 170.460,200.548 170.497,200.850 170.543 M199.352 188.741 C 199.601 188.789,199.961 188.787,200.152 188.737 C 200.344 188.687,200.140 188.648,199.700 188.650 C 199.260 188.653,199.104 188.694,199.352 188.741 M252.100 190.800 C 252.642 191.350,253.130 191.800,253.185 191.800 C 253.240 191.800,252.842 191.350,252.300 190.800 C 251.758 190.250,251.270 189.800,251.215 189.800 C 251.160 189.800,251.558 190.250,252.100 190.800 M149.593 191.150 L 148.500 192.300 149.650 191.207 C 150.718 190.191,150.892 190.000,150.743 190.000 C 150.712 190.000,150.194 190.518,149.593 191.150 M146.993 193.750 L 145.900 194.900 147.050 193.807 C 148.118 192.791,148.292 192.600,148.143 192.600 C 148.112 192.600,147.594 193.118,146.993 193.750 M255.500 194.200 C 256.042 194.750,256.530 195.200,256.585 195.200 C 256.640 195.200,256.242 194.750,255.700 194.200 C 255.158 193.650,254.670 193.200,254.615 193.200 C 254.560 193.200,254.958 193.650,255.500 194.200 M227.000 210.900 C 226.514 211.395,226.162 211.800,226.217 211.800 C 226.272 211.800,226.714 211.395,227.200 210.900 C 227.686 210.405,228.038 210.000,227.983 210.000 C 227.928 210.000,227.486 210.405,227.000 210.900 M188.246 231.800 C 188.246 232.185,188.288 232.343,188.338 232.150 C 188.388 231.957,188.388 231.643,188.338 231.450 C 188.288 231.257,188.246 231.415,188.246 231.800 M186.046 232.400 C 186.046 232.785,186.088 232.943,186.138 232.750 C 186.188 232.558,186.188 232.243,186.138 232.050 C 186.088 231.857,186.046 232.015,186.046 232.400 M275.454 239.400 C 275.454 239.895,275.493 240.097,275.541 239.850 C 275.589 239.603,275.589 239.197,275.541 238.950 C 275.493 238.703,275.454 238.905,275.454 239.400 M126.646 239.400 C 126.646 239.785,126.688 239.943,126.738 239.750 C 126.788 239.558,126.788 239.243,126.738 239.050 C 126.688 238.857,126.646 239.015,126.646 239.400 M126.466 244.500 C 126.467 245.270,126.503 245.560,126.546 245.146 C 126.589 244.731,126.589 244.101,126.544 243.746 C 126.500 243.390,126.465 243.730,126.466 244.500 M126.471 249.300 C 126.470 250.290,126.504 250.720,126.546 250.256 C 126.588 249.792,126.589 248.982,126.547 248.456 C 126.506 247.930,126.472 248.310,126.471 249.300 M275.450 249.700 C 275.453 250.140,275.494 250.296,275.541 250.048 C 275.589 249.799,275.587 249.439,275.537 249.248 C 275.487 249.056,275.448 249.260,275.450 249.700 M201.150 250.541 C 201.398 250.589,201.803 250.589,202.050 250.541 C 202.298 250.493,202.095 250.454,201.600 250.454 C 201.105 250.454,200.903 250.493,201.150 250.541 M228.700 267.600 C 229.242 268.150,229.730 268.600,229.785 268.600 C 229.840 268.600,229.442 268.150,228.900 267.600 C 228.358 267.050,227.870 266.600,227.815 266.600 C 227.760 266.600,228.158 267.050,228.700 267.600 M123.050 267.138 C 123.243 267.188,123.558 267.188,123.750 267.138 C 123.942 267.088,123.785 267.046,123.400 267.046 C 123.015 267.046,122.858 267.088,123.050 267.138 M277.750 267.141 C 277.998 267.189,278.403 267.189,278.650 267.141 C 278.897 267.093,278.695 267.054,278.200 267.054 C 277.705 267.054,277.502 267.093,277.750 267.141 M205.050 267.343 C 205.353 267.389,205.847 267.389,206.150 267.343 C 206.453 267.297,206.205 267.260,205.600 267.260 C 204.995 267.260,204.748 267.297,205.050 267.343 M284.692 270.587 C 284.830 270.810,285.600 270.784,285.600 270.557 C 285.600 270.471,285.370 270.400,285.088 270.400 C 284.807 270.400,284.628 270.484,284.692 270.587 M129.352 271.541 C 129.601 271.589,129.961 271.587,130.152 271.537 C 130.344 271.487,130.140 271.448,129.700 271.450 C 129.260 271.453,129.104 271.494,129.352 271.541 M151.554 273.945 C 151.913 273.989,152.453 273.989,152.754 273.943 C 153.054 273.897,152.760 273.861,152.100 273.862 C 151.440 273.863,151.194 273.900,151.554 273.945 M159.950 275.541 C 160.197 275.589,160.603 275.589,160.850 275.541 C 161.097 275.493,160.895 275.454,160.400 275.454 C 159.905 275.454,159.703 275.493,159.950 275.541 M164.650 275.738 C 164.843 275.788,165.158 275.788,165.350 275.738 C 165.543 275.688,165.385 275.646,165.000 275.646 C 164.615 275.646,164.458 275.688,164.650 275.738 M169.050 275.943 C 169.353 275.989,169.847 275.989,170.150 275.943 C 170.453 275.897,170.205 275.860,169.600 275.860 C 168.995 275.860,168.748 275.897,169.050 275.943 M172.350 275.941 C 172.597 275.989,173.003 275.989,173.250 275.941 C 173.498 275.893,173.295 275.854,172.800 275.854 C 172.305 275.854,172.103 275.893,172.350 275.941 M270.900 277.800 C 270.307 277.951,270.309 277.953,271.062 277.976 C 271.524 277.991,271.775 277.921,271.700 277.800 C 271.632 277.690,271.559 277.611,271.538 277.624 C 271.517 277.637,271.230 277.716,270.900 277.800 M285.250 277.738 C 285.443 277.788,285.757 277.788,285.950 277.738 C 286.143 277.688,285.985 277.646,285.600 277.646 C 285.215 277.646,285.058 277.688,285.250 277.738 M304.087 280.250 L 303.500 280.900 304.150 280.313 C 304.756 279.765,304.892 279.600,304.737 279.600 C 304.703 279.600,304.410 279.893,304.087 280.250 M156.554 280.745 C 156.913 280.789,157.453 280.789,157.754 280.743 C 158.054 280.697,157.760 280.661,157.100 280.662 C 156.440 280.663,156.194 280.700,156.554 280.745 M163.050 280.743 C 163.353 280.789,163.847 280.789,164.150 280.743 C 164.453 280.697,164.205 280.660,163.600 280.660 C 162.995 280.660,162.748 280.697,163.050 280.743 M228.250 282.343 C 228.553 282.389,229.048 282.389,229.350 282.343 C 229.653 282.297,229.405 282.260,228.800 282.260 C 228.195 282.260,227.947 282.297,228.250 282.343 M301.250 286.543 C 301.553 286.589,302.048 286.589,302.350 286.543 C 302.653 286.497,302.405 286.460,301.800 286.460 C 301.195 286.460,300.947 286.497,301.250 286.543 M109.850 290.538 C 110.043 290.588,110.358 290.588,110.550 290.538 C 110.743 290.488,110.585 290.446,110.200 290.446 C 109.815 290.446,109.658 290.488,109.850 290.538 M137.952 290.541 C 138.201 290.589,138.561 290.587,138.752 290.537 C 138.944 290.487,138.740 290.448,138.300 290.450 C 137.860 290.453,137.704 290.494,137.952 290.541 M155.600 294.063 C 155.600 294.097,155.893 294.390,156.250 294.713 L 156.900 295.300 156.313 294.650 C 155.765 294.044,155.600 293.908,155.600 294.063 M143.887 296.450 L 143.300 297.100 143.950 296.513 C 144.308 296.190,144.600 295.897,144.600 295.863 C 144.600 295.708,144.435 295.844,143.887 296.450 M192.450 298.338 C 192.643 298.388,192.958 298.388,193.150 298.338 C 193.343 298.288,193.185 298.246,192.800 298.246 C 192.415 298.246,192.258 298.288,192.450 298.338 M120.650 306.347 C 121.172 306.388,122.028 306.388,122.550 306.347 C 123.072 306.306,122.645 306.272,121.600 306.272 C 120.555 306.272,120.128 306.306,120.650 306.347 M234.050 314.938 C 234.243 314.988,234.558 314.988,234.750 314.938 C 234.943 314.888,234.785 314.846,234.400 314.846 C 234.015 314.846,233.857 314.888,234.050 314.938 M180.650 316.538 C 180.843 316.588,181.158 316.588,181.350 316.538 C 181.543 316.488,181.385 316.446,181.000 316.446 C 180.615 316.446,180.458 316.488,180.650 316.538 M253.959 316.749 C 254.872 316.786,256.312 316.786,257.159 316.748 C 258.007 316.711,257.260 316.681,255.500 316.681 C 253.740 316.681,253.047 316.712,253.959 316.749 M206.546 319.544 C 206.901 319.589,207.531 319.589,207.946 319.546 C 208.360 319.503,208.070 319.467,207.300 319.466 C 206.530 319.465,206.190 319.500,206.546 319.544 M210.154 319.545 C 210.513 319.589,211.053 319.589,211.354 319.543 C 211.654 319.497,211.360 319.461,210.700 319.462 C 210.040 319.463,209.794 319.500,210.154 319.545 " stroke="none" fill="#397fb1" fill-rule="evenodd"></path><path id="path4" d="M175.246 36.600 C 175.246 36.985,175.288 37.143,175.338 36.950 C 175.388 36.758,175.388 36.443,175.338 36.250 C 175.288 36.057,175.246 36.215,175.246 36.600 M161.250 37.700 C 161.253 38.140,161.294 38.296,161.341 38.048 C 161.389 37.799,161.387 37.439,161.337 37.248 C 161.287 37.056,161.248 37.260,161.250 37.700 M219.154 45.745 C 219.513 45.789,220.053 45.789,220.354 45.743 C 220.654 45.697,220.360 45.661,219.700 45.662 C 219.040 45.663,218.794 45.700,219.154 45.745 M203.457 45.948 C 204.094 45.988,205.084 45.987,205.657 45.947 C 206.231 45.907,205.710 45.874,204.500 45.875 C 203.290 45.875,202.821 45.908,203.457 45.948 M131.846 46.600 C 131.846 46.985,131.888 47.143,131.938 46.950 C 131.988 46.758,131.988 46.443,131.938 46.250 C 131.888 46.058,131.846 46.215,131.846 46.600 M143.695 67.800 C 143.695 75.775,143.720 79.038,143.750 75.050 C 143.780 71.063,143.780 64.538,143.750 60.550 C 143.720 56.563,143.695 59.825,143.695 67.800 M132.446 55.400 C 132.446 55.785,132.488 55.942,132.538 55.750 C 132.588 55.558,132.588 55.242,132.538 55.050 C 132.488 54.858,132.446 55.015,132.446 55.400 M211.250 56.138 C 211.443 56.188,211.757 56.188,211.950 56.138 C 212.143 56.088,211.985 56.046,211.600 56.046 C 211.215 56.046,211.058 56.088,211.250 56.138 M211.050 57.143 C 211.353 57.189,211.847 57.189,212.150 57.143 C 212.453 57.097,212.205 57.060,211.600 57.060 C 210.995 57.060,210.748 57.097,211.050 57.143 M309.054 58.200 C 309.054 58.695,309.093 58.898,309.141 58.650 C 309.189 58.403,309.189 57.998,309.141 57.750 C 309.093 57.502,309.054 57.705,309.054 58.200 M294.800 63.263 C 294.800 63.297,295.093 63.590,295.450 63.913 L 296.100 64.500 295.513 63.850 C 294.965 63.244,294.800 63.108,294.800 63.263 M133.046 64.200 C 133.046 64.585,133.088 64.742,133.138 64.550 C 133.188 64.358,133.188 64.043,133.138 63.850 C 133.088 63.658,133.046 63.815,133.046 64.200 M142.691 74.800 C 142.691 78.925,142.717 80.613,142.750 78.550 C 142.782 76.488,142.782 73.113,142.750 71.050 C 142.717 68.987,142.691 70.675,142.691 74.800 M330.150 67.945 C 330.507 67.989,331.093 67.989,331.450 67.945 C 331.808 67.900,331.515 67.864,330.800 67.864 C 330.085 67.864,329.793 67.900,330.150 67.945 M316.200 75.900 C 315.381 76.725,314.755 77.400,314.810 77.400 C 314.865 77.400,315.581 76.725,316.400 75.900 C 317.219 75.075,317.845 74.400,317.790 74.400 C 317.735 74.400,317.019 75.075,316.200 75.900 M345.800 75.863 C 345.800 75.897,346.093 76.190,346.450 76.513 L 347.100 77.100 346.513 76.450 C 345.965 75.844,345.800 75.708,345.800 75.863 M324.287 83.650 L 323.700 84.300 324.350 83.713 C 324.707 83.390,325.000 83.097,325.000 83.063 C 325.000 82.908,324.835 83.044,324.287 83.650 M345.400 83.900 C 344.914 84.395,344.562 84.800,344.617 84.800 C 344.672 84.800,345.114 84.395,345.600 83.900 C 346.086 83.405,346.438 83.000,346.383 83.000 C 346.328 83.000,345.886 83.405,345.400 83.900 M346.600 84.100 C 346.114 84.595,345.762 85.000,345.817 85.000 C 345.872 85.000,346.314 84.595,346.800 84.100 C 347.286 83.605,347.638 83.200,347.583 83.200 C 347.528 83.200,347.086 83.605,346.600 84.100 M298.896 93.650 L 296.900 95.700 298.950 93.704 C 300.854 91.850,301.091 91.600,300.946 91.600 C 300.917 91.600,299.994 92.523,298.896 93.650 M312.492 95.850 L 311.500 96.900 312.550 95.908 C 313.128 95.362,313.600 94.889,313.600 94.858 C 313.600 94.708,313.415 94.874,312.492 95.850 M312.692 97.050 L 311.700 98.100 312.750 97.108 C 313.328 96.562,313.800 96.089,313.800 96.058 C 313.800 95.908,313.615 96.074,312.692 97.050 M307.892 100.650 L 306.900 101.700 307.950 100.708 C 308.528 100.162,309.000 99.689,309.000 99.658 C 309.000 99.508,308.815 99.674,307.892 100.650 M290.396 102.350 L 288.500 104.300 290.450 102.404 C 292.261 100.643,292.491 100.400,292.346 100.400 C 292.316 100.400,291.439 101.278,290.396 102.350 M308.092 101.850 L 307.100 102.900 308.150 101.908 C 308.728 101.362,309.200 100.889,309.200 100.858 C 309.200 100.708,309.015 100.874,308.092 101.850 M194.550 102.747 C 195.128 102.788,196.072 102.788,196.650 102.747 C 197.228 102.707,196.755 102.674,195.600 102.674 C 194.445 102.674,193.972 102.707,194.550 102.747 M220.757 103.148 C 221.338 103.188,222.238 103.188,222.757 103.147 C 223.276 103.106,222.800 103.073,221.700 103.073 C 220.600 103.074,220.176 103.107,220.757 103.148 M192.746 103.744 C 193.101 103.789,193.731 103.789,194.146 103.746 C 194.560 103.703,194.270 103.667,193.500 103.666 C 192.730 103.665,192.390 103.700,192.746 103.744 M218.946 104.144 C 219.301 104.189,219.931 104.189,220.346 104.146 C 220.760 104.103,220.470 104.067,219.700 104.066 C 218.930 104.065,218.590 104.100,218.946 104.144 M103.687 105.050 L 103.100 105.700 103.750 105.113 C 104.356 104.565,104.492 104.400,104.337 104.400 C 104.303 104.400,104.010 104.692,103.687 105.050 M303.292 105.450 L 302.300 106.500 303.350 105.508 C 303.928 104.962,304.400 104.489,304.400 104.458 C 304.400 104.308,304.215 104.474,303.292 105.450 M303.492 106.650 L 302.500 107.700 303.550 106.708 C 304.127 106.162,304.600 105.689,304.600 105.658 C 304.600 105.508,304.415 105.674,303.492 106.650 M339.091 106.850 L 338.300 107.700 339.150 106.909 C 339.940 106.174,340.092 106.000,339.941 106.000 C 339.908 106.000,339.525 106.383,339.091 106.850 M281.896 111.050 L 279.900 113.100 281.950 111.104 C 283.854 109.250,284.091 109.000,283.946 109.000 C 283.917 109.000,282.994 109.922,281.896 111.050 M97.087 109.850 L 96.500 110.500 97.150 109.913 C 97.756 109.365,97.892 109.200,97.737 109.200 C 97.703 109.200,97.410 109.493,97.087 109.850 M298.692 110.250 L 297.700 111.300 298.750 110.308 C 299.328 109.762,299.800 109.289,299.800 109.258 C 299.800 109.108,299.615 109.274,298.692 110.250 M335.691 110.450 L 334.900 111.300 335.750 110.509 C 336.540 109.774,336.692 109.600,336.541 109.600 C 336.508 109.600,336.125 109.983,335.691 110.450 M298.892 111.450 L 297.900 112.500 298.950 111.508 C 299.528 110.962,300.000 110.489,300.000 110.458 C 300.000 110.308,299.815 110.474,298.892 111.450 M252.253 111.544 C 252.557 111.589,253.007 111.588,253.253 111.541 C 253.499 111.493,253.250 111.456,252.700 111.457 C 252.150 111.459,251.949 111.498,252.253 111.544 M278.691 112.850 L 277.900 113.700 278.750 112.909 C 279.218 112.475,279.600 112.092,279.600 112.059 C 279.600 111.908,279.426 112.060,278.691 112.850 M332.389 113.950 L 331.700 114.700 332.450 114.011 C 333.148 113.369,333.292 113.200,333.139 113.200 C 333.106 113.200,332.768 113.538,332.389 113.950 M347.887 114.450 L 347.300 115.100 347.950 114.513 C 348.556 113.965,348.692 113.800,348.537 113.800 C 348.503 113.800,348.210 114.093,347.887 114.450 M294.092 115.050 L 293.100 116.100 294.150 115.108 C 294.728 114.562,295.200 114.089,295.200 114.058 C 295.200 113.908,295.015 114.074,294.092 115.050 M294.292 116.250 L 293.300 117.300 294.350 116.308 C 294.928 115.762,295.400 115.289,295.400 115.258 C 295.400 115.108,295.215 115.274,294.292 116.250 M328.989 117.550 L 328.300 118.300 329.050 117.611 C 329.748 116.969,329.892 116.800,329.739 116.800 C 329.706 116.800,329.368 117.138,328.989 117.550 M274.094 119.050 L 272.900 120.300 274.150 119.106 C 275.311 117.997,275.492 117.800,275.344 117.800 C 275.313 117.800,274.750 118.363,274.094 119.050 M343.495 120.050 L 342.100 121.500 343.550 120.105 C 344.897 118.810,345.091 118.600,344.945 118.600 C 344.914 118.600,344.262 119.253,343.495 120.050 M289.492 119.850 L 288.500 120.900 289.550 119.908 C 290.127 119.362,290.600 118.889,290.600 118.858 C 290.600 118.708,290.415 118.874,289.492 119.850 M341.695 120.450 L 340.300 121.900 341.750 120.505 C 343.097 119.210,343.291 119.000,343.145 119.000 C 343.114 119.000,342.462 119.653,341.695 120.450 M289.692 121.050 L 288.700 122.100 289.750 121.108 C 290.328 120.562,290.800 120.089,290.800 120.058 C 290.800 119.908,290.615 120.074,289.692 121.050 M325.691 121.050 L 324.900 121.900 325.750 121.109 C 326.540 120.374,326.692 120.200,326.541 120.200 C 326.508 120.200,326.125 120.583,325.691 121.050 M284.892 124.650 L 283.900 125.700 284.950 124.708 C 285.528 124.162,286.000 123.689,286.000 123.658 C 286.000 123.508,285.815 123.674,284.892 124.650 M322.291 124.650 L 321.500 125.500 322.350 124.709 C 323.140 123.974,323.292 123.800,323.141 123.800 C 323.108 123.800,322.725 124.183,322.291 124.650 M285.092 125.850 L 284.100 126.900 285.150 125.908 C 285.728 125.362,286.200 124.889,286.200 124.858 C 286.200 124.708,286.015 124.874,285.092 125.850 M336.600 126.700 C 335.781 127.525,335.155 128.200,335.210 128.200 C 335.265 128.200,335.981 127.525,336.800 126.700 C 337.619 125.875,338.245 125.200,338.190 125.200 C 338.135 125.200,337.419 125.875,336.600 126.700 M335.000 126.900 C 334.181 127.725,333.555 128.400,333.610 128.400 C 333.665 128.400,334.381 127.725,335.200 126.900 C 336.019 126.075,336.645 125.400,336.590 125.400 C 336.535 125.400,335.819 126.075,335.000 126.900 M318.989 128.150 L 318.300 128.900 319.050 128.211 C 319.748 127.569,319.892 127.400,319.739 127.400 C 319.706 127.400,319.368 127.738,318.989 128.150 M315.589 131.750 L 314.900 132.500 315.650 131.811 C 316.348 131.169,316.492 131.000,316.339 131.000 C 316.306 131.000,315.968 131.338,315.589 131.750 M329.695 133.450 L 328.300 134.900 329.750 133.505 C 331.097 132.210,331.291 132.000,331.145 132.000 C 331.114 132.000,330.462 132.653,329.695 133.450 M327.895 133.850 L 326.500 135.300 327.950 133.905 C 329.297 132.610,329.491 132.400,329.345 132.400 C 329.314 132.400,328.662 133.053,327.895 133.850 M312.291 135.250 L 311.500 136.100 312.350 135.309 C 313.140 134.574,313.292 134.400,313.141 134.400 C 313.108 134.400,312.725 134.782,312.291 135.250 M308.989 138.750 L 308.300 139.500 309.050 138.811 C 309.748 138.169,309.892 138.000,309.739 138.000 C 309.706 138.000,309.368 138.338,308.989 138.750 M321.194 140.339 C 320.482 141.075,320.043 141.571,320.218 141.440 C 320.394 141.310,320.596 141.248,320.668 141.302 C 320.741 141.356,320.753 141.338,320.695 141.262 C 320.637 141.185,321.061 140.645,321.638 140.062 C 322.215 139.478,322.642 139.000,322.587 139.000 C 322.533 139.000,321.906 139.602,321.194 140.339 M305.589 142.350 L 304.900 143.100 305.650 142.411 C 306.348 141.769,306.492 141.600,306.339 141.600 C 306.306 141.600,305.968 141.938,305.589 142.350 M198.250 170.546 C 198.663 170.589,199.338 170.589,199.750 170.546 C 200.163 170.503,199.825 170.467,199.000 170.467 C 198.175 170.467,197.838 170.503,198.250 170.546 M196.552 188.741 C 196.801 188.789,197.161 188.787,197.352 188.737 C 197.544 188.687,197.340 188.648,196.900 188.650 C 196.460 188.653,196.304 188.694,196.552 188.741 M200.650 188.738 C 200.843 188.788,201.158 188.788,201.350 188.738 C 201.543 188.688,201.385 188.646,201.000 188.646 C 200.615 188.646,200.458 188.688,200.650 188.738 M198.150 190.346 C 198.618 190.389,199.383 190.389,199.850 190.346 C 200.317 190.304,199.935 190.270,199.000 190.270 C 198.065 190.270,197.683 190.304,198.150 190.346 M253.800 192.500 C 254.173 192.885,254.523 193.200,254.578 193.200 C 254.633 193.200,254.373 192.885,254.000 192.500 C 253.627 192.115,253.277 191.800,253.222 191.800 C 253.167 191.800,253.427 192.115,253.800 192.500 M221.900 198.200 C 222.553 198.860,223.132 199.400,223.187 199.400 C 223.242 199.400,222.753 198.860,222.100 198.200 C 221.447 197.540,220.868 197.000,220.813 197.000 C 220.758 197.000,221.247 197.540,221.900 198.200 M176.887 199.450 L 176.300 200.100 176.950 199.513 C 177.308 199.190,177.600 198.897,177.600 198.863 C 177.600 198.708,177.435 198.844,176.887 199.450 M230.087 210.050 L 229.500 210.700 230.150 210.113 C 230.756 209.565,230.892 209.400,230.737 209.400 C 230.703 209.400,230.410 209.693,230.087 210.050 M219.846 212.400 C 219.846 212.785,219.888 212.943,219.938 212.750 C 219.988 212.558,219.988 212.243,219.938 212.050 C 219.888 211.857,219.846 212.015,219.846 212.400 M180.400 220.100 C 180.773 220.485,181.123 220.800,181.178 220.800 C 181.233 220.800,180.973 220.485,180.600 220.100 C 180.227 219.715,179.877 219.400,179.822 219.400 C 179.767 219.400,180.027 219.715,180.400 220.100 M177.064 222.600 C 177.064 223.315,177.100 223.607,177.145 223.250 C 177.189 222.893,177.189 222.308,177.145 221.950 C 177.100 221.593,177.064 221.885,177.064 222.600 M166.750 224.141 C 166.998 224.189,167.403 224.189,167.650 224.141 C 167.898 224.093,167.695 224.054,167.200 224.054 C 166.705 224.054,166.503 224.093,166.750 224.141 M187.667 232.400 C 187.667 233.225,187.703 233.563,187.746 233.150 C 187.789 232.738,187.789 232.063,187.746 231.650 C 187.703 231.238,187.667 231.575,187.667 232.400 M189.850 232.700 C 189.853 233.140,189.894 233.296,189.941 233.048 C 189.989 232.799,189.987 232.439,189.937 232.248 C 189.887 232.056,189.848 232.260,189.850 232.700 M173.064 236.600 C 173.064 237.315,173.100 237.607,173.145 237.250 C 173.189 236.893,173.189 236.308,173.145 235.950 C 173.100 235.593,173.064 235.885,173.064 236.600 M179.350 239.570 C 179.297 239.773,179.321 240.291,179.404 240.720 C 179.547 241.464,179.555 241.447,179.577 240.350 C 179.600 239.176,179.523 238.909,179.350 239.570 M182.989 239.950 L 182.300 240.700 183.050 240.011 C 183.748 239.369,183.892 239.200,183.739 239.200 C 183.706 239.200,183.368 239.538,182.989 239.950 M126.650 240.700 C 126.653 241.140,126.694 241.296,126.741 241.048 C 126.789 240.799,126.787 240.439,126.737 240.248 C 126.687 240.056,126.648 240.260,126.650 240.700 M275.466 241.500 C 275.467 242.270,275.503 242.560,275.546 242.146 C 275.589 241.731,275.589 241.101,275.544 240.746 C 275.500 240.390,275.465 240.730,275.466 241.500 M184.789 241.150 L 184.100 241.900 184.850 241.211 C 185.548 240.569,185.692 240.400,185.539 240.400 C 185.506 240.400,185.168 240.738,184.789 241.150 M219.692 242.850 L 218.700 243.900 219.750 242.908 C 220.328 242.362,220.800 241.889,220.800 241.858 C 220.800 241.708,220.615 241.874,219.692 242.850 M220.887 244.050 L 220.300 244.700 220.950 244.113 C 221.556 243.565,221.692 243.400,221.537 243.400 C 221.503 243.400,221.210 243.693,220.887 244.050 M126.457 246.700 C 126.459 247.250,126.498 247.451,126.544 247.147 C 126.589 246.843,126.588 246.393,126.541 246.147 C 126.493 245.901,126.456 246.150,126.457 246.700 M275.467 247.600 C 275.467 248.425,275.503 248.763,275.546 248.350 C 275.589 247.938,275.589 247.263,275.546 246.850 C 275.503 246.438,275.467 246.775,275.467 247.600 M200.750 252.146 C 201.218 252.189,201.983 252.189,202.450 252.146 C 202.918 252.104,202.535 252.070,201.600 252.070 C 200.665 252.070,200.283 252.104,200.750 252.146 M207.053 267.344 C 207.357 267.389,207.807 267.388,208.053 267.341 C 208.299 267.293,208.050 267.256,207.500 267.257 C 206.950 267.259,206.749 267.298,207.053 267.344 M231.152 269.341 C 231.401 269.389,231.761 269.387,231.952 269.337 C 232.144 269.287,231.940 269.248,231.500 269.250 C 231.060 269.253,230.904 269.294,231.152 269.341 M149.653 273.944 C 149.957 273.989,150.407 273.988,150.653 273.941 C 150.899 273.893,150.650 273.856,150.100 273.857 C 149.550 273.859,149.349 273.898,149.653 273.944 M153.650 273.943 C 153.953 273.989,154.447 273.989,154.750 273.943 C 155.053 273.897,154.805 273.860,154.200 273.860 C 153.595 273.860,153.347 273.897,153.650 273.943 M164.750 274.748 C 165.438 274.787,166.563 274.787,167.250 274.748 C 167.938 274.709,167.375 274.677,166.000 274.677 C 164.625 274.677,164.063 274.709,164.750 274.748 M148.653 275.544 C 148.957 275.589,149.407 275.588,149.653 275.541 C 149.899 275.493,149.650 275.456,149.100 275.457 C 148.550 275.459,148.349 275.498,148.653 275.544 M157.450 275.546 C 157.863 275.589,158.538 275.589,158.950 275.546 C 159.363 275.503,159.025 275.467,158.200 275.467 C 157.375 275.467,157.038 275.503,157.450 275.546 M163.450 275.738 C 163.643 275.788,163.958 275.788,164.150 275.738 C 164.343 275.688,164.185 275.646,163.800 275.646 C 163.415 275.646,163.258 275.688,163.450 275.738 M167.552 275.941 C 167.801 275.989,168.161 275.987,168.352 275.937 C 168.544 275.887,168.340 275.848,167.900 275.850 C 167.460 275.853,167.304 275.894,167.552 275.941 M154.750 280.741 C 154.998 280.789,155.403 280.789,155.650 280.741 C 155.898 280.693,155.695 280.654,155.200 280.654 C 154.705 280.654,154.503 280.693,154.750 280.741 M164.952 280.741 C 165.201 280.789,165.561 280.787,165.752 280.737 C 165.944 280.687,165.740 280.648,165.300 280.650 C 164.860 280.653,164.704 280.694,164.952 280.741 M226.850 282.338 C 227.043 282.388,227.357 282.388,227.550 282.338 C 227.743 282.288,227.585 282.246,227.200 282.246 C 226.815 282.246,226.657 282.288,226.850 282.338 M298.050 286.547 C 298.572 286.588,299.428 286.588,299.950 286.547 C 300.473 286.506,300.045 286.472,299.000 286.472 C 297.955 286.472,297.528 286.506,298.050 286.547 M230.300 289.800 C 230.730 290.240,231.126 290.600,231.181 290.600 C 231.236 290.600,230.930 290.240,230.500 289.800 C 230.070 289.360,229.674 289.000,229.619 289.000 C 229.564 289.000,229.870 289.360,230.300 289.800 M111.050 290.538 C 111.243 290.588,111.558 290.588,111.750 290.538 C 111.942 290.488,111.785 290.446,111.400 290.446 C 111.015 290.446,110.858 290.488,111.050 290.538 M139.750 290.546 C 140.218 290.589,140.983 290.589,141.450 290.546 C 141.917 290.504,141.535 290.470,140.600 290.470 C 139.665 290.470,139.282 290.504,139.750 290.546 M105.650 290.738 C 105.843 290.788,106.158 290.788,106.350 290.738 C 106.543 290.688,106.385 290.646,106.000 290.646 C 105.615 290.646,105.458 290.688,105.650 290.738 M135.250 290.738 C 135.442 290.788,135.758 290.788,135.950 290.738 C 136.143 290.688,135.985 290.646,135.600 290.646 C 135.215 290.646,135.058 290.688,135.250 290.738 M197.050 291.138 C 197.243 291.188,197.558 291.188,197.750 291.138 C 197.942 291.088,197.785 291.046,197.400 291.046 C 197.015 291.046,196.858 291.088,197.050 291.138 M304.989 291.750 L 304.300 292.500 305.050 291.811 C 305.463 291.432,305.800 291.094,305.800 291.061 C 305.800 290.908,305.631 291.052,304.989 291.750 M243.300 293.400 C 243.953 294.060,244.532 294.600,244.587 294.600 C 244.642 294.600,244.153 294.060,243.500 293.400 C 242.847 292.740,242.268 292.200,242.213 292.200 C 242.158 292.200,242.647 292.740,243.300 293.400 M200.750 294.346 C 201.218 294.389,201.983 294.389,202.450 294.346 C 202.918 294.304,202.535 294.270,201.600 294.270 C 200.665 294.270,200.283 294.304,200.750 294.346 M276.050 298.538 C 276.243 298.588,276.558 298.588,276.750 298.538 C 276.943 298.488,276.785 298.446,276.400 298.446 C 276.015 298.446,275.858 298.488,276.050 298.538 M287.152 298.541 C 287.401 298.589,287.761 298.587,287.952 298.537 C 288.144 298.487,287.940 298.448,287.500 298.450 C 287.060 298.453,286.904 298.494,287.152 298.541 M299.989 300.950 L 299.300 301.700 300.050 301.011 C 300.748 300.369,300.892 300.200,300.739 300.200 C 300.706 300.200,300.368 300.538,299.989 300.950 M280.150 302.549 C 280.947 302.586,282.252 302.586,283.050 302.549 C 283.848 302.511,283.195 302.479,281.600 302.479 C 280.005 302.479,279.353 302.511,280.150 302.549 M118.850 306.338 C 119.043 306.388,119.358 306.388,119.550 306.338 C 119.743 306.288,119.585 306.246,119.200 306.246 C 118.815 306.246,118.658 306.288,118.850 306.338 M123.853 306.344 C 124.157 306.389,124.607 306.388,124.853 306.341 C 125.099 306.293,124.850 306.256,124.300 306.257 C 123.750 306.259,123.549 306.298,123.853 306.344 M248.752 316.541 C 249.001 316.589,249.361 316.587,249.552 316.537 C 249.744 316.487,249.540 316.448,249.100 316.450 C 248.660 316.453,248.504 316.494,248.752 316.541 M261.552 316.541 C 261.801 316.589,262.161 316.587,262.352 316.537 C 262.544 316.487,262.340 316.448,261.900 316.450 C 261.460 316.453,261.304 316.494,261.552 316.541 M148.154 320.145 C 148.513 320.189,149.053 320.189,149.354 320.143 C 149.654 320.097,149.360 320.061,148.700 320.062 C 148.040 320.063,147.794 320.100,148.154 320.145 M152.154 320.145 C 152.513 320.189,153.053 320.189,153.354 320.143 C 153.654 320.097,153.360 320.061,152.700 320.062 C 152.040 320.063,151.794 320.100,152.154 320.145 " stroke="none" fill="#575757" fill-rule="evenodd"></path></g></svg>